<svg width="594" height="594" viewBox="0 0 594 594" fill="none" xmlns="http://www.w3.org/2000/svg">
<path d="M19.599 295.343V297.148H39.8366V295.343H19.599Z" fill="#FC5F2B"/>
<path d="M27.0113 278.365L26.8979 280.166L40.0638 280.994L40.1772 279.193L27.0113 278.365Z" fill="#FC5F2B"/>
<path d="M28.7034 261.46L28.4772 263.251L41.5651 264.904L41.7913 263.113L28.7034 261.46Z" fill="#FC5F2B"/>
<path d="M31.4471 244.695L31.1089 246.468L44.0671 248.94L44.4054 247.167L31.4471 244.695Z" fill="#FC5F2B"/>
<path d="M35.2452 228.135L34.7963 229.883L47.5737 233.164L48.0226 231.416L35.2452 228.135Z" fill="#FC5F2B"/>
<path d="M33.2817 209.639L32.7239 211.355L52.0642 217.639L52.6219 215.923L33.2817 209.639Z" fill="#FC5F2B"/>
<path d="M45.9209 195.893L45.2565 197.572L57.522 202.428L58.1865 200.75L45.9209 195.893Z" fill="#FC5F2B"/>
<path d="M52.749 180.337L51.9805 181.971L63.9169 187.588L64.6854 185.954L52.749 180.337Z" fill="#FC5F2B"/>
<path d="M60.5463 165.243L59.6768 166.824L71.2369 173.18L72.1065 171.598L60.5463 165.243Z" fill="#FC5F2B"/>
<path d="M69.2744 150.667L68.3073 152.191L79.4455 159.259L80.4127 157.735L69.2744 150.667Z" fill="#FC5F2B"/>
<path d="M73.1346 132.479L72.0736 133.939L88.5109 145.881L89.5718 144.421L73.1346 132.479Z" fill="#FC5F2B"/>
<path d="M89.3864 123.3L88.2358 124.691L98.4004 133.1L99.5509 131.709L89.3864 123.3Z" fill="#FC5F2B"/>
<path d="M100.69 110.617L99.4545 111.933L109.071 120.964L110.307 119.648L100.69 110.617Z" fill="#FC5F2B"/>
<path d="M112.769 98.6704L111.454 99.906L120.484 109.522L121.8 108.287L112.769 98.6704Z" fill="#FC5F2B"/>
<path d="M125.571 87.5043L124.18 88.6549L132.589 98.8194L133.98 97.6689L125.571 87.5043Z" fill="#FC5F2B"/>
<path d="M134.842 71.3702L133.382 72.4312L145.346 88.8983L146.807 87.8373L134.842 71.3702Z" fill="#FC5F2B"/>
<path d="M153.159 67.6913L151.635 68.6584L158.703 79.7967L160.227 78.8296L153.159 67.6913Z" fill="#FC5F2B"/>
<path d="M167.828 59.1254L166.246 59.995L172.602 71.5552L174.183 70.6856L167.828 59.1254Z" fill="#FC5F2B"/>
<path d="M183.007 51.4951L181.374 52.2637L186.991 64.2001L188.624 63.4315L183.007 51.4951Z" fill="#FC5F2B"/>
<path d="M198.639 44.8321L196.961 45.4966L201.817 57.7621L203.495 57.0976L198.639 44.8321Z" fill="#FC5F2B"/>
<path d="M212.412 32.2608L210.696 32.8186L217.015 52.2664L218.731 51.7086L212.412 32.2608Z" fill="#FC5F2B"/>
<path d="M230.993 34.5116L229.245 34.9604L232.525 47.7379L234.274 47.289L230.993 34.5116Z" fill="#FC5F2B"/>
<path d="M247.594 30.8996L245.821 31.2378L248.293 44.196L250.066 43.8578L247.594 30.8996Z" fill="#FC5F2B"/>
<path d="M264.388 28.3322L262.597 28.5585L264.25 41.6464L266.041 41.4201L264.388 28.3322Z" fill="#FC5F2B"/>
<path d="M281.308 26.8268L279.506 26.9402L280.335 40.1061L282.136 39.9927L281.308 26.8268Z" fill="#FC5F2B"/>
<path d="M298.293 19.2285H296.488V39.5757H298.293V19.2285Z" fill="#FC5F2B"/>
<path d="M315.271 27.0131L313.469 26.8998L312.641 40.0657L314.442 40.179L315.271 27.0131Z" fill="#FC5F2B"/>
<path d="M332.176 28.7016L330.385 28.4753L328.732 41.5632L330.523 41.7895L332.176 28.7016Z" fill="#FC5F2B"/>
<path d="M348.942 31.4478L347.169 31.1096L344.697 44.0679L346.47 44.4061L348.942 31.4478Z" fill="#FC5F2B"/>
<path d="M365.501 35.246L363.752 34.7971L360.472 47.5746L362.22 48.0235L365.501 35.246Z" fill="#FC5F2B"/>
<path d="M384.031 33.1794L382.314 32.6216L375.996 52.0661L377.713 52.6239L384.031 33.1794Z" fill="#FC5F2B"/>
<path d="M397.742 45.92L396.064 45.2555L391.208 57.521L392.886 58.1855L397.742 45.92Z" fill="#FC5F2B"/>
<path d="M413.298 52.7519L411.664 51.9834L406.048 63.9198L407.681 64.6883L413.298 52.7519Z" fill="#FC5F2B"/>
<path d="M428.393 60.5458L426.811 59.6763L420.456 71.2364L422.038 72.106L428.393 60.5458Z" fill="#FC5F2B"/>
<path d="M442.969 69.2752L441.445 68.308L434.377 79.4463L435.901 80.4135L442.969 69.2752Z" fill="#FC5F2B"/>
<path d="M461.419 72.7765L459.959 71.7156L447.754 88.5139L449.215 89.5749L461.419 72.7765Z" fill="#FC5F2B"/>
<path d="M470.335 89.3849L468.945 88.2344L460.536 98.3989L461.927 99.5495L470.335 89.3849Z" fill="#FC5F2B"/>
<path d="M483.018 100.687L481.703 99.4514L472.672 109.068L473.988 110.304L483.018 100.687Z" fill="#FC5F2B"/>
<path d="M494.966 112.772L493.73 111.456L484.114 120.486L485.349 121.802L494.966 112.772Z" fill="#FC5F2B"/>
<path d="M506.131 125.573L504.981 124.182L494.816 132.591L495.967 133.982L506.131 125.573Z" fill="#FC5F2B"/>
<path d="M522.224 134.873L521.163 133.412L504.738 145.347L505.799 146.807L522.224 134.873Z" fill="#FC5F2B"/>
<path d="M525.944 153.157L524.977 151.633L513.839 158.701L514.806 160.225L525.944 153.157Z" fill="#FC5F2B"/>
<path d="M534.512 167.827L533.642 166.245L522.082 172.6L522.951 174.182L534.512 167.827Z" fill="#FC5F2B"/>
<path d="M542.142 183.007L541.374 181.374L529.438 186.991L530.206 188.624L542.142 183.007Z" fill="#FC5F2B"/>
<path d="M548.804 198.636L548.14 196.958L535.874 201.814L536.539 203.493L548.804 198.636Z" fill="#FC5F2B"/>
<path d="M561.394 212.403L560.837 210.687L541.368 217.012L541.926 218.729L561.394 212.403Z" fill="#FC5F2B"/>
<path d="M559.123 230.993L558.674 229.244L545.897 232.525L546.346 234.273L559.123 230.993Z" fill="#FC5F2B"/>
<path d="M562.738 247.593L562.4 245.819L549.442 248.291L549.78 250.064L562.738 247.593Z" fill="#FC5F2B"/>
<path d="M565.304 264.387L565.078 262.596L551.99 264.249L552.216 266.04L565.304 264.387Z" fill="#FC5F2B"/>
<path d="M566.811 281.31L566.697 279.508L553.532 280.337L553.645 282.138L566.811 281.31Z" fill="#FC5F2B"/>
<path d="M574.333 298.293V296.488H554.06V298.293H574.333Z" fill="#FC5F2B"/>
<path d="M566.626 315.271L566.739 313.47L553.573 312.641L553.46 314.443L566.626 315.271Z" fill="#FC5F2B"/>
<path d="M564.935 332.176L565.161 330.385L552.073 328.732L551.847 330.523L564.935 332.176Z" fill="#A3A3A3"/>
<path d="M562.186 348.941L562.524 347.168L549.566 344.696L549.227 346.469L562.186 348.941Z" fill="#A3A3A3"/>
<path d="M558.389 365.501L558.838 363.753L546.061 360.472L545.612 362.221L558.389 365.501Z" fill="#A3A3A3"/>
<path d="M560.692 384.107L561.25 382.391L541.572 375.997L541.014 377.713L560.692 384.107Z" fill="#A3A3A3"/>
<path d="M547.718 397.743L548.383 396.065L536.117 391.209L535.453 392.887L547.718 397.743Z" fill="#A3A3A3"/>
<path d="M540.886 413.298L541.654 411.665L529.718 406.048L528.949 407.681L540.886 413.298Z" fill="#A3A3A3"/>
<path d="M533.091 428.393L533.96 426.812L522.4 420.456L521.53 422.038L533.091 428.393Z" fill="#A3A3A3"/>
<path d="M524.363 442.969L525.33 441.445L514.191 434.377L513.224 435.901L524.363 442.969Z" fill="#A3A3A3"/>
<path d="M520.526 461.175L521.587 459.715L505.125 447.755L504.064 449.215L520.526 461.175Z" fill="#A3A3A3"/>
<path d="M504.251 470.336L505.401 468.945L495.237 460.536L494.086 461.927L504.251 470.336Z" fill="#A3A3A3"/>
<path d="M492.946 483.018L494.182 481.702L484.565 472.672L483.33 473.987L492.946 483.018Z" fill="#A3A3A3"/>
<path d="M480.867 494.966L482.183 493.73L473.153 484.114L471.837 485.349L480.867 494.966Z" fill="#A3A3A3"/>
<path d="M472.733 511.777L474.123 510.626L461.045 494.816L459.654 495.967L472.733 511.777Z" fill="#A3A3A3"/>
<path d="M454.582 516.471L456.042 515.41L448.288 504.737L446.828 505.798L454.582 516.471Z" fill="#A3A3A3"/>
<path d="M440.478 525.943L442.002 524.976L434.933 513.838L433.409 514.805L440.478 525.943Z" fill="#A3A3A3"/>
<path d="M425.808 534.512L427.39 533.642L421.034 522.082L419.453 522.952L425.808 534.512Z" fill="#A3A3A3"/>
<path d="M410.628 542.142L412.261 541.374L406.645 529.437L405.011 530.206L410.628 542.142Z" fill="#A3A3A3"/>
<path d="M395 548.804L396.678 548.14L391.822 535.874L390.144 536.538L395 548.804Z" fill="#A3A3A3"/>
<path d="M378.983 554.472L380.7 553.914L376.623 541.368L374.907 541.926L378.983 554.472Z" fill="#A3A3A3"/>
<path d="M362.643 559.123L364.392 558.674L361.111 545.896L359.363 546.345L362.643 559.123Z" fill="#A3A3A3"/>
<path d="M346.043 562.738L347.816 562.4L345.344 549.442L343.571 549.78L346.043 562.738Z" fill="#A3A3A3"/>
<path d="M329.249 565.304L331.039 565.078L329.386 551.99L327.595 552.217L329.249 565.304Z" fill="#A3A3A3"/>
<path d="M312.326 566.811L314.128 566.698L313.299 553.532L311.498 553.645L312.326 566.811Z" fill="#A3A3A3"/>
<path d="M295.343 567.252H297.148V554.06H295.343V567.252Z" fill="#A3A3A3"/>
<path d="M278.365 566.626L280.166 566.739L280.995 553.573L279.193 553.46L278.365 566.626Z" fill="#A3A3A3"/>
<path d="M261.46 564.935L263.251 565.161L264.904 552.073L263.113 551.847L261.46 564.935Z" fill="#A3A3A3"/>
<path d="M244.695 562.185L246.468 562.524L248.94 549.565L247.167 549.227L244.695 562.185Z" fill="#A3A3A3"/>
<path d="M228.135 558.389L229.883 558.837L233.164 546.06L231.416 545.611L228.135 558.389Z" fill="#A3A3A3"/>
<path d="M211.846 553.56L213.563 554.118L217.639 541.572L215.922 541.014L211.846 553.56Z" fill="#A3A3A3"/>
<path d="M195.893 547.718L197.571 548.383L202.428 536.117L200.749 535.453L195.893 547.718Z" fill="#A3A3A3"/>
<path d="M180.338 540.886L181.971 541.655L187.588 529.718L185.955 528.95L180.338 540.886Z" fill="#A3A3A3"/>
<path d="M165.243 533.091L166.824 533.96L173.18 522.4L171.598 521.53L165.243 533.091Z" fill="#A3A3A3"/>
<path d="M150.667 524.362L152.191 525.329L159.259 514.191L157.735 513.224L150.667 524.362Z" fill="#A3A3A3"/>
<path d="M136.668 514.737L138.128 515.798L145.882 505.125L144.422 504.064L136.668 514.737Z" fill="#A3A3A3"/>
<path d="M123.3 504.251L124.691 505.402L133.099 495.237L131.709 494.087L123.3 504.251Z" fill="#A3A3A3"/>
<path d="M110.618 492.946L111.934 494.182L120.964 484.565L119.648 483.33L110.618 492.946Z" fill="#A3A3A3"/>
<path d="M98.6703 480.868L99.9059 482.183L109.522 473.153L108.287 471.837L98.6703 480.868Z" fill="#A3A3A3"/>
<path d="M82.1439 472.498L83.2944 473.889L98.8878 460.989L97.7372 459.598L82.1439 472.498Z" fill="#A3A3A3"/>
<path d="M77.1655 454.582L78.2264 456.042L88.8989 448.288L87.838 446.828L77.1655 454.582Z" fill="#A3A3A3"/>
<path d="M67.6921 440.478L68.6593 442.002L79.7976 434.933L78.8304 433.409L67.6921 440.478Z" fill="#A3A3A3"/>
<path d="M59.1238 425.808L59.9934 427.389L71.5536 421.034L70.684 419.452L59.1238 425.808Z" fill="#A3A3A3"/>
<path d="M51.4938 410.628L52.2623 412.262L64.1987 406.645L63.4302 405.012L51.4938 410.628Z" fill="#A3A3A3"/>
<path d="M44.831 395L45.4955 396.678L57.761 391.822L57.0965 390.144L44.831 395Z" fill="#A3A3A3"/>
<path d="M32.1544 381.261L32.7122 382.978L51.9592 376.724L51.4015 375.007L32.1544 381.261Z" fill="#A3A3A3"/>
<path d="M34.5129 362.644L34.9618 364.392L47.7393 361.111L47.2904 359.363L34.5129 362.644Z" fill="#A3A3A3"/>
<path d="M30.8993 346.043L31.2375 347.816L44.1958 345.344L43.8576 343.571L30.8993 346.043Z" fill="#A3A3A3"/>
<path d="M28.3326 329.248L28.5588 331.039L41.6467 329.386L41.4205 327.595L28.3326 329.248Z" fill="#A3A3A3"/>
<path d="M26.8275 312.326L26.9408 314.128L40.1067 313.299L39.9933 311.498L26.8275 312.326Z" fill="#FC5F2B"/>
<path d="M65.7168 295.673C65.2183 295.673 64.8142 296.077 64.8142 296.575C64.8142 297.073 65.2183 297.478 65.7168 297.478C66.2152 297.478 66.6193 297.073 66.6193 296.575C66.6193 296.077 66.2152 295.673 65.7168 295.673Z" fill="#FC5F2B"/>
<path d="M66.172 281.177C65.6735 281.177 65.2694 281.581 65.2694 282.079C65.2694 282.578 65.6735 282.982 66.172 282.982C66.6704 282.982 67.0745 282.578 67.0745 282.079C67.0745 281.581 66.6704 281.177 66.172 281.177Z" fill="#FC5F2B"/>
<path d="M67.5371 266.738C67.0386 266.738 66.6346 267.142 66.6346 267.641C66.6346 268.139 67.0386 268.543 67.5371 268.543C68.0355 268.543 68.4396 268.139 68.4396 267.641C68.4396 267.142 68.0355 266.738 67.5371 266.738Z" fill="#FC5F2B"/>
<path d="M69.8056 252.414C69.3072 252.414 68.9031 252.818 68.9031 253.317C68.9031 253.815 69.3072 254.219 69.8056 254.219C70.3041 254.219 70.7081 253.815 70.7081 253.317C70.7081 252.818 70.3041 252.414 69.8056 252.414Z" fill="#FC5F2B"/>
<path d="M72.9693 238.26C72.4709 238.26 72.0668 238.664 72.0668 239.163C72.0668 239.661 72.4709 240.065 72.9693 240.065C73.4678 240.065 73.8718 239.661 73.8718 239.163C73.8718 238.664 73.4678 238.26 72.9693 238.26Z" fill="#FC5F2B"/>
<path d="M77.0156 224.333C76.5171 224.333 76.1131 224.737 76.1131 225.236C76.1131 225.734 76.5171 226.138 77.0156 226.138C77.514 226.138 77.9181 225.734 77.9181 225.236C77.9181 224.737 77.514 224.333 77.0156 224.333Z" fill="#FC5F2B"/>
<path d="M81.9284 210.688C81.43 210.688 81.0259 211.092 81.0259 211.59C81.0259 212.089 81.43 212.493 81.9284 212.493C82.4269 212.493 82.8309 212.089 82.8309 211.59C82.8309 211.092 82.4269 210.688 81.9284 210.688Z" fill="#FC5F2B"/>
<path d="M87.6882 197.378C87.1897 197.378 86.7857 197.782 86.7857 198.28C86.7857 198.779 87.1897 199.183 87.6882 199.183C88.1866 199.183 88.5907 198.779 88.5907 198.28C88.5907 197.782 88.1866 197.378 87.6882 197.378Z" fill="#FC5F2B"/>
<path d="M94.2722 184.456C93.7737 184.456 93.3697 184.86 93.3697 185.358C93.3697 185.857 93.7737 186.261 94.2722 186.261C94.7706 186.261 95.1747 185.857 95.1747 185.358C95.1747 184.86 94.7706 184.456 94.2722 184.456Z" fill="#FC5F2B"/>
<path d="M101.655 171.972C101.156 171.972 100.752 172.376 100.752 172.875C100.752 173.373 101.156 173.777 101.655 173.777C102.153 173.777 102.557 173.373 102.557 172.875C102.557 172.376 102.153 171.972 101.655 171.972Z" fill="#FC5F2B"/>
<path d="M109.807 159.977C109.308 159.977 108.904 160.382 108.904 160.88C108.904 161.378 109.308 161.782 109.807 161.782C110.305 161.782 110.709 161.378 110.709 160.88C110.709 160.382 110.305 159.977 109.807 159.977Z" fill="#FC5F2B"/>
<path d="M118.696 148.518C118.197 148.518 117.793 148.922 117.793 149.42C117.793 149.919 118.197 150.323 118.696 150.323C119.194 150.323 119.598 149.919 119.598 149.42C119.598 148.922 119.194 148.518 118.696 148.518Z" fill="#FC5F2B"/>
<path d="M128.287 137.639C127.788 137.639 127.384 138.043 127.384 138.542C127.384 139.04 127.788 139.444 128.287 139.444C128.785 139.444 129.189 139.04 129.189 138.542C129.189 138.043 128.785 137.639 128.287 137.639Z" fill="#FC5F2B"/>
<path d="M138.541 127.384C138.043 127.384 137.639 127.788 137.639 128.286C137.639 128.785 138.043 129.189 138.541 129.189C139.04 129.189 139.444 128.785 139.444 128.286C139.444 127.788 139.04 127.384 138.541 127.384Z" fill="#FC5F2B"/>
<path d="M149.42 117.793C148.922 117.793 148.518 118.197 148.518 118.696C148.518 119.194 148.922 119.598 149.42 119.598C149.919 119.598 150.323 119.194 150.323 118.696C150.323 118.197 149.919 117.793 149.42 117.793Z" fill="#FC5F2B"/>
<path d="M160.88 108.904C160.381 108.904 159.977 109.308 159.977 109.807C159.977 110.305 160.381 110.709 160.88 110.709C161.378 110.709 161.782 110.305 161.782 109.807C161.782 109.308 161.378 108.904 160.88 108.904Z" fill="#FC5F2B"/>
<path d="M172.875 100.752C172.377 100.752 171.972 101.156 171.972 101.655C171.972 102.153 172.377 102.557 172.875 102.557C173.373 102.557 173.777 102.153 173.777 101.655C173.777 101.156 173.373 100.752 172.875 100.752Z" fill="#FC5F2B"/>
<path d="M185.358 93.3697C184.86 93.3697 184.455 93.7737 184.455 94.2722C184.455 94.7706 184.86 95.1747 185.358 95.1747C185.856 95.1747 186.26 94.7706 186.26 94.2722C186.26 93.7737 185.856 93.3697 185.358 93.3697Z" fill="#FC5F2B"/>
<path d="M198.28 86.7857C197.782 86.7857 197.378 87.1897 197.378 87.6882C197.378 88.1866 197.782 88.5907 198.28 88.5907C198.779 88.5907 199.183 88.1866 199.183 87.6882C199.183 87.1897 198.779 86.7857 198.28 86.7857Z" fill="#FC5F2B"/>
<path d="M211.59 81.0259C211.092 81.0259 210.688 81.43 210.688 81.9284C210.688 82.4269 211.092 82.8309 211.59 82.8309C212.089 82.8309 212.493 82.4269 212.493 81.9284C212.493 81.43 212.089 81.0259 211.59 81.0259Z" fill="#FC5F2B"/>
<path d="M225.236 76.1131C224.737 76.1131 224.333 76.5171 224.333 77.0156C224.333 77.514 224.737 77.9181 225.236 77.9181C225.734 77.9181 226.138 77.514 226.138 77.0156C226.138 76.5171 225.734 76.1131 225.236 76.1131Z" fill="#FC5F2B"/>
<path d="M239.163 72.0669C238.664 72.0669 238.26 72.471 238.26 72.9694C238.26 73.4679 238.664 73.8719 239.163 73.8719C239.661 73.8719 240.065 73.4679 240.065 72.9694C240.065 72.471 239.661 72.0669 239.163 72.0669Z" fill="#FC5F2B"/>
<path d="M253.316 68.9034C252.818 68.9034 252.414 69.3074 252.414 69.8059C252.414 70.3043 252.818 70.7084 253.316 70.7084C253.815 70.7084 254.219 70.3043 254.219 69.8059C254.219 69.3074 253.815 68.9034 253.316 68.9034Z" fill="#FC5F2B"/>
<path d="M267.641 66.6344C267.142 66.6344 266.738 67.0385 266.738 67.5369C266.738 68.0354 267.142 68.4395 267.641 68.4395C268.139 68.4395 268.543 68.0354 268.543 67.5369C268.543 67.0385 268.139 66.6344 267.641 66.6344Z" fill="#FC5F2B"/>
<path d="M282.079 65.2697C281.581 65.2697 281.177 65.6738 281.177 66.1722C281.177 66.6706 281.581 67.0747 282.079 67.0747C282.578 67.0747 282.982 66.6706 282.982 66.1722C282.982 65.6738 282.578 65.2697 282.079 65.2697Z" fill="#FC5F2B"/>
<path d="M296.575 64.8144C296.076 64.8144 295.672 65.2184 295.672 65.7169C295.672 66.2153 296.076 66.6194 296.575 66.6194C297.073 66.6194 297.477 66.2153 297.477 65.7169C297.477 65.2184 297.073 64.8144 296.575 64.8144Z" fill="#FC5F2B"/>
<path d="M311.071 65.2697C310.572 65.2697 310.168 65.6738 310.168 66.1722C310.168 66.6706 310.572 67.0747 311.071 67.0747C311.569 67.0747 311.973 66.6706 311.973 66.1722C311.973 65.6738 311.569 65.2697 311.071 65.2697Z" fill="#FC5F2B"/>
<path d="M325.509 66.6344C325.011 66.6344 324.607 67.0385 324.607 67.5369C324.607 68.0354 325.011 68.4395 325.509 68.4395C326.008 68.4395 326.412 68.0354 326.412 67.5369C326.412 67.0385 326.008 66.6344 325.509 66.6344Z" fill="#FC5F2B"/>
<path d="M339.833 68.9034C339.335 68.9034 338.931 69.3074 338.931 69.8059C338.931 70.3043 339.335 70.7084 339.833 70.7084C340.332 70.7084 340.736 70.3043 340.736 69.8059C340.736 69.3074 340.332 68.9034 339.833 68.9034Z" fill="#FC5F2B"/>
<path d="M353.987 72.0669C353.489 72.0669 353.085 72.471 353.085 72.9694C353.085 73.4679 353.489 73.8719 353.987 73.8719C354.486 73.8719 354.89 73.4679 354.89 72.9694C354.89 72.471 354.486 72.0669 353.987 72.0669Z" fill="#FC5F2B"/>
<path d="M367.914 76.1131C367.416 76.1131 367.012 76.5171 367.012 77.0156C367.012 77.514 367.416 77.9181 367.914 77.9181C368.413 77.9181 368.817 77.514 368.817 77.0156C368.817 76.5171 368.413 76.1131 367.914 76.1131Z" fill="#FC5F2B"/>
<path d="M381.56 81.0259C381.061 81.0259 380.657 81.43 380.657 81.9284C380.657 82.4269 381.061 82.8309 381.56 82.8309C382.058 82.8309 382.462 82.4269 382.462 81.9284C382.462 81.43 382.058 81.0259 381.56 81.0259Z" fill="#FC5F2B"/>
<path d="M394.87 86.7857C394.371 86.7857 393.967 87.1897 393.967 87.6882C393.967 88.1866 394.371 88.5907 394.87 88.5907C395.368 88.5907 395.772 88.1866 395.772 87.6882C395.772 87.1897 395.368 86.7857 394.87 86.7857Z" fill="#FC5F2B"/>
<path d="M407.792 93.3697C407.294 93.3697 406.89 93.7737 406.89 94.2722C406.89 94.7706 407.294 95.1747 407.792 95.1747C408.291 95.1747 408.695 94.7706 408.695 94.2722C408.695 93.7737 408.291 93.3697 407.792 93.3697Z" fill="#FC5F2B"/>
<path d="M420.275 100.752C419.777 100.752 419.373 101.156 419.373 101.655C419.373 102.153 419.777 102.557 420.275 102.557C420.774 102.557 421.178 102.153 421.178 101.655C421.178 101.156 420.774 100.752 420.275 100.752Z" fill="#FC5F2B"/>
<path d="M432.27 108.904C431.772 108.904 431.367 109.308 431.367 109.807C431.367 110.305 431.772 110.709 432.27 110.709C432.768 110.709 433.172 110.305 433.172 109.807C433.172 109.308 432.768 108.904 432.27 108.904Z" fill="#FC5F2B"/>
<path d="M443.729 117.793C443.231 117.793 442.827 118.197 442.827 118.696C442.827 119.194 443.231 119.598 443.729 119.598C444.228 119.598 444.632 119.194 444.632 118.696C444.632 118.197 444.228 117.793 443.729 117.793Z" fill="#FC5F2B"/>
<path d="M454.608 127.384C454.11 127.384 453.706 127.788 453.706 128.286C453.706 128.785 454.11 129.189 454.608 129.189C455.107 129.189 455.511 128.785 455.511 128.286C455.511 127.788 455.107 127.384 454.608 127.384Z" fill="#FC5F2B"/>
<path d="M464.863 137.639C464.365 137.639 463.961 138.043 463.961 138.542C463.961 139.04 464.365 139.444 464.863 139.444C465.362 139.444 465.766 139.04 465.766 138.542C465.766 138.043 465.362 137.639 464.863 137.639Z" fill="#FC5F2B"/>
<path d="M474.455 148.518C473.956 148.518 473.552 148.922 473.552 149.42C473.552 149.919 473.956 150.323 474.455 150.323C474.953 150.323 475.357 149.919 475.357 149.42C475.357 148.922 474.953 148.518 474.455 148.518Z" fill="#FC5F2B"/>
<path d="M483.343 159.977C482.845 159.977 482.441 160.382 482.441 160.88C482.441 161.378 482.845 161.782 483.343 161.782C483.842 161.782 484.246 161.378 484.246 160.88C484.246 160.382 483.842 159.977 483.343 159.977Z" fill="#FC5F2B"/>
<path d="M491.495 171.972C490.997 171.972 490.593 172.376 490.593 172.875C490.593 173.373 490.997 173.777 491.495 173.777C491.994 173.777 492.398 173.373 492.398 172.875C492.398 172.376 491.994 171.972 491.495 171.972Z" fill="#FC5F2B"/>
<path d="M498.878 184.456C498.379 184.456 497.975 184.86 497.975 185.358C497.975 185.857 498.379 186.261 498.878 186.261C499.376 186.261 499.78 185.857 499.78 185.358C499.78 184.86 499.376 184.456 498.878 184.456Z" fill="#FC5F2B"/>
<path d="M505.462 197.378C504.963 197.378 504.559 197.782 504.559 198.28C504.559 198.779 504.963 199.183 505.462 199.183C505.96 199.183 506.364 198.779 506.364 198.28C506.364 197.782 505.96 197.378 505.462 197.378Z" fill="#FC5F2B"/>
<path d="M511.222 210.688C510.723 210.688 510.319 211.092 510.319 211.59C510.319 212.089 510.723 212.493 511.222 212.493C511.72 212.493 512.124 212.089 512.124 211.59C512.124 211.092 511.72 210.688 511.222 210.688Z" fill="#FC5F2B"/>
<path d="M516.134 224.333C515.636 224.333 515.232 224.737 515.232 225.236C515.232 225.734 515.636 226.138 516.134 226.138C516.633 226.138 517.037 225.734 517.037 225.236C517.037 224.737 516.633 224.333 516.134 224.333Z" fill="#FC5F2B"/>
<path d="M520.181 238.26C519.682 238.26 519.278 238.664 519.278 239.163C519.278 239.661 519.682 240.065 520.181 240.065C520.679 240.065 521.083 239.661 521.083 239.163C521.083 238.664 520.679 238.26 520.181 238.26Z" fill="#FC5F2B"/>
<path d="M523.344 252.414C522.846 252.414 522.441 252.818 522.441 253.317C522.441 253.815 522.846 254.219 523.344 254.219C523.842 254.219 524.246 253.815 524.246 253.317C524.246 252.818 523.842 252.414 523.344 252.414Z" fill="#FC5F2B"/>
<path d="M525.613 266.738C525.115 266.738 524.71 267.142 524.71 267.641C524.71 268.139 525.115 268.543 525.613 268.543C526.111 268.543 526.516 268.139 526.516 267.641C526.516 267.142 526.111 266.738 525.613 266.738Z" fill="#FC5F2B"/>
<path d="M526.978 281.177C526.48 281.177 526.075 281.581 526.075 282.079C526.075 282.578 526.48 282.982 526.978 282.982C527.476 282.982 527.88 282.578 527.88 282.079C527.88 281.581 527.476 281.177 526.978 281.177Z" fill="#FC5F2B"/>
<path d="M527.433 295.673C526.935 295.673 526.531 296.077 526.531 296.575C526.531 297.073 526.935 297.478 527.433 297.478C527.932 297.478 528.336 297.073 528.336 296.575C528.336 296.077 527.932 295.673 527.433 295.673Z" fill="#FC5F2B"/>
<path d="M526.978 310.168C526.48 310.168 526.075 310.572 526.075 311.071C526.075 311.569 526.48 311.973 526.978 311.973C527.476 311.973 527.88 311.569 527.88 311.071C527.88 310.572 527.476 310.168 526.978 310.168Z" fill="#FC5F2B"/>
<path d="M525.613 324.607C525.115 324.607 524.71 325.011 524.71 325.509C524.71 326.008 525.115 326.412 525.613 326.412C526.111 326.412 526.516 326.008 526.516 325.509C526.516 325.011 526.111 324.607 525.613 324.607Z" fill="#FC5F2B"/>
<path d="M523.344 338.931C522.846 338.931 522.441 339.335 522.441 339.833C522.441 340.332 522.846 340.736 523.344 340.736C523.842 340.736 524.246 340.332 524.246 339.833C524.246 339.335 523.842 338.931 523.344 338.931Z" fill="#A3A3A3"/>
<path d="M520.181 353.085C519.682 353.085 519.278 353.489 519.278 353.987C519.278 354.486 519.682 354.89 520.181 354.89C520.679 354.89 521.083 354.486 521.083 353.987C521.083 353.489 520.679 353.085 520.181 353.085Z" fill="#A3A3A3"/>
<path d="M516.134 367.012C515.636 367.012 515.232 367.416 515.232 367.914C515.232 368.412 515.636 368.817 516.134 368.817C516.633 368.817 517.037 368.412 517.037 367.914C517.037 367.416 516.633 367.012 516.134 367.012Z" fill="#A3A3A3"/>
<path d="M511.222 380.657C510.723 380.657 510.319 381.061 510.319 381.56C510.319 382.058 510.723 382.462 511.222 382.462C511.72 382.462 512.124 382.058 512.124 381.56C512.124 381.061 511.72 380.657 511.222 380.657Z" fill="#A3A3A3"/>
<path d="M505.462 393.967C504.963 393.967 504.559 394.371 504.559 394.87C504.559 395.368 504.963 395.772 505.462 395.772C505.96 395.772 506.364 395.368 506.364 394.87C506.364 394.371 505.96 393.967 505.462 393.967Z" fill="#A3A3A3"/>
<path d="M498.878 406.889C498.379 406.889 497.975 407.293 497.975 407.792C497.975 408.29 498.379 408.694 498.878 408.694C499.376 408.694 499.78 408.29 499.78 407.792C499.78 407.293 499.376 406.889 498.878 406.889Z" fill="#A3A3A3"/>
<path d="M491.495 419.373C490.997 419.373 490.593 419.777 490.593 420.275C490.593 420.774 490.997 421.178 491.495 421.178C491.994 421.178 492.398 420.774 492.398 420.275C492.398 419.777 491.994 419.373 491.495 419.373Z" fill="#A3A3A3"/>
<path d="M483.343 431.368C482.845 431.368 482.441 431.772 482.441 432.27C482.441 432.769 482.845 433.173 483.343 433.173C483.842 433.173 484.246 432.769 484.246 432.27C484.246 431.772 483.842 431.368 483.343 431.368Z" fill="#A3A3A3"/>
<path d="M474.455 442.827C473.956 442.827 473.552 443.231 473.552 443.73C473.552 444.228 473.956 444.632 474.455 444.632C474.953 444.632 475.357 444.228 475.357 443.73C475.357 443.231 474.953 442.827 474.455 442.827Z" fill="#A3A3A3"/>
<path d="M464.863 453.706C464.365 453.706 463.961 454.11 463.961 454.609C463.961 455.107 464.365 455.511 464.863 455.511C465.362 455.511 465.766 455.107 465.766 454.609C465.766 454.11 465.362 453.706 464.863 453.706Z" fill="#A3A3A3"/>
<path d="M454.608 463.961C454.11 463.961 453.706 464.365 453.706 464.864C453.706 465.362 454.11 465.766 454.608 465.766C455.107 465.766 455.511 465.362 455.511 464.864C455.511 464.365 455.107 463.961 454.608 463.961Z" fill="#A3A3A3"/>
<path d="M443.729 473.552C443.231 473.552 442.827 473.956 442.827 474.454C442.827 474.953 443.231 475.357 443.729 475.357C444.228 475.357 444.632 474.953 444.632 474.454C444.632 473.956 444.228 473.552 443.729 473.552Z" fill="#A3A3A3"/>
<path d="M432.27 482.441C431.772 482.441 431.367 482.845 431.367 483.343C431.367 483.842 431.772 484.246 432.27 484.246C432.768 484.246 433.172 483.842 433.172 483.343C433.172 482.845 432.768 482.441 432.27 482.441Z" fill="#A3A3A3"/>
<path d="M420.275 490.593C419.777 490.593 419.373 490.997 419.373 491.495C419.373 491.994 419.777 492.398 420.275 492.398C420.774 492.398 421.178 491.994 421.178 491.495C421.178 490.997 420.774 490.593 420.275 490.593Z" fill="#A3A3A3"/>
<path d="M407.792 497.975C407.294 497.975 406.89 498.379 406.89 498.878C406.89 499.376 407.294 499.78 407.792 499.78C408.291 499.78 408.695 499.376 408.695 498.878C408.695 498.379 408.291 497.975 407.792 497.975Z" fill="#A3A3A3"/>
<path d="M394.87 504.559C394.371 504.559 393.967 504.964 393.967 505.462C393.967 505.96 394.371 506.365 394.87 506.365C395.368 506.365 395.772 505.96 395.772 505.462C395.772 504.964 395.368 504.559 394.87 504.559Z" fill="#A3A3A3"/>
<path d="M381.56 510.319C381.061 510.319 380.657 510.723 380.657 511.222C380.657 511.72 381.061 512.124 381.56 512.124C382.058 512.124 382.462 511.72 382.462 511.222C382.462 510.723 382.058 510.319 381.56 510.319Z" fill="#A3A3A3"/>
<path d="M367.914 515.232C367.416 515.232 367.012 515.636 367.012 516.134C367.012 516.633 367.416 517.037 367.914 517.037C368.413 517.037 368.817 516.633 368.817 516.134C368.817 515.636 368.413 515.232 367.914 515.232Z" fill="#A3A3A3"/>
<path d="M353.987 519.278C353.489 519.278 353.085 519.682 353.085 520.181C353.085 520.679 353.489 521.083 353.987 521.083C354.486 521.083 354.89 520.679 354.89 520.181C354.89 519.682 354.486 519.278 353.987 519.278Z" fill="#A3A3A3"/>
<path d="M339.833 522.442C339.335 522.442 338.931 522.846 338.931 523.344C338.931 523.843 339.335 524.247 339.833 524.247C340.332 524.247 340.736 523.843 340.736 523.344C340.736 522.846 340.332 522.442 339.833 522.442Z" fill="#A3A3A3"/>
<path d="M325.509 524.711C325.011 524.711 324.607 525.115 324.607 525.613C324.607 526.112 325.011 526.516 325.509 526.516C326.008 526.516 326.412 526.112 326.412 525.613C326.412 525.115 326.008 524.711 325.509 524.711Z" fill="#A3A3A3"/>
<path d="M311.071 526.075C310.572 526.075 310.168 526.479 310.168 526.978C310.168 527.476 310.572 527.88 311.071 527.88C311.569 527.88 311.973 527.476 311.973 526.978C311.973 526.479 311.569 526.075 311.071 526.075Z" fill="#A3A3A3"/>
<path d="M296.575 526.531C296.076 526.531 295.672 526.935 295.672 527.433C295.672 527.932 296.076 528.336 296.575 528.336C297.073 528.336 297.477 527.932 297.477 527.433C297.477 526.935 297.073 526.531 296.575 526.531Z" fill="#A3A3A3"/>
<path d="M282.079 526.075C281.581 526.075 281.177 526.479 281.177 526.978C281.177 527.476 281.581 527.88 282.079 527.88C282.578 527.88 282.982 527.476 282.982 526.978C282.982 526.479 282.578 526.075 282.079 526.075Z" fill="#A3A3A3"/>
<path d="M267.641 524.711C267.142 524.711 266.738 525.115 266.738 525.613C266.738 526.112 267.142 526.516 267.641 526.516C268.139 526.516 268.543 526.112 268.543 525.613C268.543 525.115 268.139 524.711 267.641 524.711Z" fill="#A3A3A3"/>
<path d="M253.316 522.442C252.818 522.442 252.414 522.846 252.414 523.344C252.414 523.843 252.818 524.247 253.316 524.247C253.815 524.247 254.219 523.843 254.219 523.344C254.219 522.846 253.815 522.442 253.316 522.442Z" fill="#A3A3A3"/>
<path d="M239.163 519.278C238.664 519.278 238.26 519.682 238.26 520.181C238.26 520.679 238.664 521.083 239.163 521.083C239.661 521.083 240.065 520.679 240.065 520.181C240.065 519.682 239.661 519.278 239.163 519.278Z" fill="#A3A3A3"/>
<path d="M225.236 515.232C224.737 515.232 224.333 515.636 224.333 516.134C224.333 516.633 224.737 517.037 225.236 517.037C225.734 517.037 226.138 516.633 226.138 516.134C226.138 515.636 225.734 515.232 225.236 515.232Z" fill="#A3A3A3"/>
<path d="M211.59 510.319C211.092 510.319 210.688 510.723 210.688 511.222C210.688 511.72 211.092 512.124 211.59 512.124C212.089 512.124 212.493 511.72 212.493 511.222C212.493 510.723 212.089 510.319 211.59 510.319Z" fill="#A3A3A3"/>
<path d="M198.28 504.559C197.782 504.559 197.378 504.964 197.378 505.462C197.378 505.96 197.782 506.365 198.28 506.365C198.779 506.365 199.183 505.96 199.183 505.462C199.183 504.964 198.779 504.559 198.28 504.559Z" fill="#A3A3A3"/>
<path d="M185.358 497.975C184.86 497.975 184.455 498.379 184.455 498.878C184.455 499.376 184.86 499.78 185.358 499.78C185.856 499.78 186.26 499.376 186.26 498.878C186.26 498.379 185.856 497.975 185.358 497.975Z" fill="#A3A3A3"/>
<path d="M172.875 490.593C172.377 490.593 171.972 490.997 171.972 491.495C171.972 491.994 172.377 492.398 172.875 492.398C173.373 492.398 173.777 491.994 173.777 491.495C173.777 490.997 173.373 490.593 172.875 490.593Z" fill="#A3A3A3"/>
<path d="M160.88 482.441C160.381 482.441 159.977 482.845 159.977 483.343C159.977 483.842 160.381 484.246 160.88 484.246C161.378 484.246 161.782 483.842 161.782 483.343C161.782 482.845 161.378 482.441 160.88 482.441Z" fill="#A3A3A3"/>
<path d="M149.42 473.552C148.922 473.552 148.518 473.956 148.518 474.454C148.518 474.953 148.922 475.357 149.42 475.357C149.919 475.357 150.323 474.953 150.323 474.454C150.323 473.956 149.919 473.552 149.42 473.552Z" fill="#A3A3A3"/>
<path d="M138.541 463.961C138.043 463.961 137.639 464.365 137.639 464.864C137.639 465.362 138.043 465.766 138.541 465.766C139.04 465.766 139.444 465.362 139.444 464.864C139.444 464.365 139.04 463.961 138.541 463.961Z" fill="#A3A3A3"/>
<path d="M128.287 453.706C127.788 453.706 127.384 454.11 127.384 454.609C127.384 455.107 127.788 455.511 128.287 455.511C128.785 455.511 129.189 455.107 129.189 454.609C129.189 454.11 128.785 453.706 128.287 453.706Z" fill="#A3A3A3"/>
<path d="M118.696 442.827C118.197 442.827 117.793 443.231 117.793 443.73C117.793 444.228 118.197 444.632 118.696 444.632C119.194 444.632 119.598 444.228 119.598 443.73C119.598 443.231 119.194 442.827 118.696 442.827Z" fill="#A3A3A3"/>
<path d="M109.807 431.368C109.308 431.368 108.904 431.772 108.904 432.27C108.904 432.769 109.308 433.173 109.807 433.173C110.305 433.173 110.709 432.769 110.709 432.27C110.709 431.772 110.305 431.368 109.807 431.368Z" fill="#A3A3A3"/>
<path d="M101.655 419.373C101.156 419.373 100.752 419.777 100.752 420.275C100.752 420.774 101.156 421.178 101.655 421.178C102.153 421.178 102.557 420.774 102.557 420.275C102.557 419.777 102.153 419.373 101.655 419.373Z" fill="#A3A3A3"/>
<path d="M94.2722 406.889C93.7737 406.889 93.3697 407.293 93.3697 407.792C93.3697 408.29 93.7737 408.694 94.2722 408.694C94.7706 408.694 95.1747 408.29 95.1747 407.792C95.1747 407.293 94.7706 406.889 94.2722 406.889Z" fill="#A3A3A3"/>
<path d="M87.6882 393.967C87.1897 393.967 86.7857 394.371 86.7857 394.87C86.7857 395.368 87.1897 395.772 87.6882 395.772C88.1866 395.772 88.5907 395.368 88.5907 394.87C88.5907 394.371 88.1866 393.967 87.6882 393.967Z" fill="#A3A3A3"/>
<path d="M81.9284 380.657C81.43 380.657 81.0259 381.061 81.0259 381.56C81.0259 382.058 81.43 382.462 81.9284 382.462C82.4269 382.462 82.8309 382.058 82.8309 381.56C82.8309 381.061 82.4269 380.657 81.9284 380.657Z" fill="#A3A3A3"/>
<path d="M77.0156 367.012C76.5171 367.012 76.1131 367.416 76.1131 367.914C76.1131 368.412 76.5171 368.817 77.0156 368.817C77.514 368.817 77.9181 368.412 77.9181 367.914C77.9181 367.416 77.514 367.012 77.0156 367.012Z" fill="#A3A3A3"/>
<path d="M72.9693 353.085C72.4709 353.085 72.0668 353.489 72.0668 353.987C72.0668 354.486 72.4709 354.89 72.9693 354.89C73.4678 354.89 73.8718 354.486 73.8718 353.987C73.8718 353.489 73.4678 353.085 72.9693 353.085Z" fill="#A3A3A3"/>
<path d="M69.8056 338.931C69.3072 338.931 68.9031 339.335 68.9031 339.833C68.9031 340.332 69.3072 340.736 69.8056 340.736C70.3041 340.736 70.7081 340.332 70.7081 339.833C70.7081 339.335 70.3041 338.931 69.8056 338.931Z" fill="#A3A3A3"/>
<path d="M67.5371 324.607C67.0386 324.607 66.6346 325.011 66.6346 325.509C66.6346 326.008 67.0386 326.412 67.5371 326.412C68.0355 326.412 68.4396 326.008 68.4396 325.509C68.4396 325.011 68.0355 324.607 67.5371 324.607Z" fill="#FC5F2B"/>
<path d="M66.172 310.168C65.6735 310.168 65.2694 310.572 65.2694 311.071C65.2694 311.569 65.6735 311.973 66.172 311.973C66.6704 311.973 67.0745 311.569 67.0745 311.071C67.0745 310.572 66.6704 310.168 66.172 310.168Z" fill="#FC5F2B"/>
</svg>
