<?xml version="1.0" encoding="UTF-8"?>
<svg id="Calque_1" data-name="Calque 1" xmlns="http://www.w3.org/2000/svg" viewBox="0 0 366.72 304.26">
  <defs>
    <style>
      .cls-1 {
        fill: #050505;
      }

      .cls-1, .cls-2, .cls-3, .cls-4, .cls-5 {
        stroke-width: 0px;
      }

      .cls-2 {
        fill: #e30613;
      }

      .cls-3 {
        fill: #f6f6f6;
      }

      .cls-4 {
        fill: #9f9f9f;
      }

      .cls-5 {
        fill: #fff;
      }
    </style>
  </defs>
  <path class="cls-4" d="M163.88,27.58c-12.38,2.29-23.98,6.84-34.35,13.16l.15,7.6c11.64-7.75,25.06-13.01,39.52-15.02l-5.32-5.74ZM231.98,38.59c-10.63-5.89-22.4-9.93-34.91-11.69l-4.78,5.95c14.55,1.45,28.16,6.19,40.06,13.46l-.37-7.73ZM258.34,59.44l-7.55,1.49c9.8,9.93,17.45,21.97,22.19,35.37l4.63-6.1c-4.57-11.41-11.15-21.8-19.26-30.76ZM199.14,222.55h-.02c-2.53.45-5.11.8-7.75,1.02-2.88.28-5.82.41-8.79.41-6.13,0-12.12-.58-17.94-1.69l2.99,7.08c4.87.74,9.87,1.1,14.96,1.1,2.97,0,5.91-.13,8.79-.39,2.64-.22,5.22-.52,7.75-.95h.02c.97-.15,1.93-.32,2.88-.52l2.45-7.14c-1.75.41-3.53.78-5.32,1.08ZM104.04,62.73c-7.73,9.26-13.85,19.89-17.94,31.49l4.96,5.67c4.22-13.61,11.39-25.93,20.74-36.21l-7.75-.95ZM93.13,162.46c-4.07-10.65-6.34-22.21-6.34-34.29,0-1.21.02-2.38.06-3.57l-6.56,4.22c.09,12.25,2.34,23.98,6.36,34.85l7.42,1.17c-.32-.78-.65-1.58-.95-2.38ZM137.07,212.44c-3.38-1.82-6.62-3.85-9.74-6.08h-.02c-5.28-3.74-10.13-7.99-14.55-12.68-1.49-1.58-2.92-3.23-4.33-4.93-.28-.37-.58-.71-.84-1.08l-2.29,7.45c1.02,1.19,2.08,2.34,3.14,3.46,2.23,2.32,4.48,4.52,6.9,6.6l.04.02c4.22,3.7,8.74,7.06,13.55,10.02,1.06.67,2.14,1.32,3.23,1.93l6.45-3.9c-.52-.26-1.02-.52-1.54-.8ZM260.01,184.52c-1.86,2.58-3.87,5.06-6,7.45-.74.84-1.52,1.67-2.32,2.49l-.02.02c-5.13,5.39-10.95,10.17-17.23,14.24-.02,0-.02.02-.06.02-.5.35-1.04.67-1.58,1-.91.56-1.82,1.1-2.73,1.62l6.8,3.48c2.75-1.71,5.39-3.55,7.94-5.52,2.38-1.82,4.68-3.74,6.86-5.76l.02-.02c3.9-3.57,7.53-7.42,10.82-11.58.09-.11.17-.22.24-.32l-2.75-7.12ZM284.83,124.41l-6.69-3.68c.19,2.45.28,4.94.28,7.45,0,11.62-2.1,22.75-5.93,33.05l7.51-1.71c3.18-9.89,4.91-20.41,4.91-31.34,0-1.26-.02-2.51-.09-3.77Z"/>
  <path class="cls-5" d="M182.58,32.37c-52.79,0-95.8,42.99-95.8,95.82,0,12.08,2.27,23.64,6.34,34.28,2.68,6.93,6.1,13.44,10.24,19.48,1.6,2.36,3.29,4.61,5.06,6.8,1.41,1.71,2.84,3.35,4.33,4.94,4.42,4.7,9.26,8.94,14.55,12.68h.02c3.12,2.23,6.36,4.26,9.74,6.08,3.27,1.77,6.67,3.38,10.17,4.78,2.97,1.17,5.95,2.21,9.07,3.1,8.35,2.38,17.19,3.66,26.28,3.66,2.97,0,5.91-.13,8.79-.41,2.64-.22,5.22-.56,7.75-1.02h.02c4.11-.71,8.1-1.69,12.01-2.9h.02c7.64-2.4,14.91-5.76,21.62-9.91.54-.32,1.08-.65,1.58-1,.04,0,.04-.02.06-.02,6.28-4.07,12.1-8.85,17.23-14.24l.02-.02c.8-.82,1.58-1.65,2.32-2.49,7.75-8.66,13.92-18.7,18.12-29.74,4.07-10.58,6.3-22.06,6.3-34.05,0-52.83-42.99-95.82-95.84-95.82ZM269.55,161.8c-5.35,13.85-13.96,26.13-24.85,35.87-1.34,1.21-2.71,2.36-4.13,3.48-8.68,6.93-18.59,12.32-29.39,15.78h-.02c-3.9,1.28-7.9,2.27-12.01,3.03h-.02c-5.37.95-10.89,1.45-16.54,1.45-4.83,0-9.61-.37-14.24-1.1-4.11-.63-8.12-1.52-12.03-2.68-2.88-.84-5.71-1.82-8.51-2.94-3.53-1.43-6.95-3.05-10.24-4.89-3.83-2.12-7.49-4.48-10.91-7.1-4.31-3.2-8.29-6.8-11.95-10.71-2.23-2.34-4.31-4.81-6.28-7.38-.67-.87-1.3-1.75-1.93-2.64-4.37-6.15-7.99-12.81-10.78-19.91-4.09-10.5-6.36-21.9-6.36-33.85,0-51.43,41.82-93.24,93.22-93.24s93.27,41.82,93.27,93.24c0,11.84-2.25,23.18-6.3,33.61Z"/>
  <path class="cls-2" d="M182.58,34.94c-51.41,0-93.22,41.82-93.22,93.24,0,11.95,2.27,23.35,6.36,33.85,2.79,7.1,6.41,13.77,10.78,19.91.63.89,1.26,1.77,1.93,2.64,1.97,2.58,4.05,5.04,6.28,7.38,3.66,3.92,7.64,7.51,11.95,10.71,3.42,2.62,7.08,4.98,10.91,7.1,3.29,1.84,6.71,3.46,10.24,4.89,2.79,1.13,5.63,2.1,8.51,2.94,3.92,1.17,7.92,2.06,12.03,2.68,4.63.74,9.42,1.1,14.24,1.1,5.65,0,11.17-.5,16.54-1.45h.02c4.11-.76,8.12-1.75,12.01-3.03h.02c10.8-3.46,20.71-8.85,29.39-15.78,1.43-1.13,2.79-2.27,4.13-3.48,10.89-9.74,19.5-22.01,24.85-35.87,4.05-10.43,6.3-21.77,6.3-33.61,0-51.43-41.82-93.24-93.27-93.24ZM267.39,161.43c-5.04,12.81-12.9,24.22-22.86,33.46-2.36,2.21-4.89,4.31-7.49,6.26-7.79,5.8-16.47,10.41-25.87,13.51h-.02c-3.9,1.3-7.9,2.34-12.01,3.07h-.02c-5.37,1-10.89,1.52-16.54,1.52-4.83,0-9.61-.39-14.24-1.13-4.11-.65-8.12-1.56-12.03-2.75-2.73-.82-5.41-1.77-7.99-2.84h-.02c-3.59-1.45-7.01-3.12-10.32-5-4.18-2.36-8.16-5.04-11.88-7.99l-.02-.02c-2.94-2.34-5.76-4.87-8.42-7.55-8.44-8.61-15.19-18.9-19.76-30.3-4.09-10.37-6.36-21.67-6.36-33.48,0-50.22,40.84-91.08,91.06-91.08s91.1,40.87,91.1,91.08c0,11.73-2.25,22.94-6.3,33.25Z"/>
  <path class="cls-5" d="M273.69,128.19c0,11.73-2.25,22.94-6.3,33.25-5.04,12.81-12.9,24.22-22.86,33.46-2.36,2.21-4.89,4.31-7.49,6.26-7.79,5.8-16.47,10.41-25.87,13.51h-.02c-3.9,1.3-7.9,2.34-12.01,3.07h-.02c-5.37,1-10.89,1.52-16.54,1.52-4.83,0-9.61-.39-14.24-1.13-4.11-.65-8.12-1.56-12.03-2.75-2.73-.82-5.41-1.77-7.99-2.84h-.02c-3.59-1.45-7.01-3.12-10.32-5-4.18-2.36-8.16-5.04-11.88-7.99l-.02-.02c-2.94-2.34-5.76-4.87-8.42-7.55-8.44-8.61-15.19-18.9-19.76-30.3-4.09-10.37-6.36-21.67-6.36-33.48,0-50.22,40.84-91.08,91.06-91.08s91.1,40.87,91.1,91.08Z"/>
  <g id="_Répétition_radiale_" data-name="&amp;lt;Répétition radiale&amp;gt;">
    <path class="cls-4" d="M300.53,119.98l-14.39-7.92-1.43-6.23-.74-5.09,9.09-11.99,7.51-9.93-6.15-10.82-8.01-14.07-5.95-10.5-11.84,2.34-16.1,3.18-5.04-3.83-3.9-3.46-.76-15.02-.63-12.45-11.67-4.33-15.17-5.65-11.3-4.2-7.58,9.39-10.3,12.79-6.26.3h-.02l-5.24-.15-10.24-11.02-8.48-9.13-11.73,4.18-15.24,5.43-11.36,4.05.24,12.06.32,16.43-4.7,4.35-4.03,3.18-14.91-1.86-12.36-1.56-6.32,10.76-8.18,13.96-6.1,10.41,7.94,9.07,10.8,12.36-.8,6.36v.02l-1.04,5-12.62,8.16-10.48,6.77,2.08,12.27,2.71,15.95,2.01,11.9,11.9,1.86,16.23,2.51,3.4,5.26,2.51,4.65-4.44,14.35-3.66,11.93,9.48,8.07,12.32,10.48,9.2,7.81,10.32-6.23,14.05-8.48,5.97,1.84,4.91,1.95,5.84,13.85,4.85,11.47,12.45.09,16.19.11,12.08.09,3.9-11.41,5.3-15.54,5.84-2.47,4.94-1.62,13.38,6.86,11.08,5.67,9.61-7.94,12.47-10.3,9.29-7.71-4.35-11.26-5.93-15.3,2.86-5.61,2.77-4.46,14.65-3.36,12.14-2.77,2.25-12.25,2.92-15.91,2.19-11.88-10.56-5.82ZM280.01,159.52l-7.51,1.71c-.11.32-.24.67-.37,1-.93,2.45-1.97,4.87-3.1,7.21-1.32,2.75-2.75,5.43-4.31,8.03-1.47,2.42-3.03,4.78-4.72,7.06l2.75,7.12c-.06.11-.15.22-.24.32-3.29,4.16-6.93,8.01-10.82,11.58l-.02.02c-2.19,2.01-4.48,3.94-6.86,5.76-2.55,1.97-5.19,3.81-7.94,5.52l-6.8-3.48c-2.73,1.58-5.56,3.01-8.44,4.31-2.77,1.26-5.63,2.38-8.53,3.33-.65.24-1.28.45-1.93.65h-.02c-2.21.67-4.44,1.3-6.69,1.82l-2.45,7.14c-.95.19-1.9.37-2.88.52h-.02c-2.53.43-5.11.74-7.75.95-2.88.26-5.82.39-8.79.39-5.09,0-10.09-.37-14.96-1.1l-2.99-7.08c-2.81-.54-5.61-1.19-8.33-1.97-.35-.11-.69-.19-1.02-.3-2.75-.82-5.41-1.75-8.05-2.79-.22-.09-.41-.17-.63-.26-2.75-1.13-5.41-2.36-8.01-3.72l-6.45,3.9c-1.08-.61-2.16-1.26-3.23-1.93-4.81-2.97-9.33-6.32-13.55-10.02l-.04-.02c-2.42-2.08-4.68-4.29-6.9-6.6-1.06-1.13-2.12-2.27-3.14-3.46l2.29-7.45c-1.49-1.84-2.88-3.74-4.22-5.71-.39-.56-.76-1.13-1.13-1.71-1.67-2.53-3.2-5.15-4.61-7.86-1.3-2.45-2.47-4.96-3.55-7.53l-7.42-1.17c-4.03-10.87-6.28-22.6-6.36-34.85l6.56-4.22v-.02c.11-2.84.35-5.65.69-8.42.37-3.01.89-5.97,1.56-8.9.54-2.49,1.19-4.96,1.95-7.38l-4.96-5.67c4.09-11.6,10.22-22.23,17.94-31.49l7.75.95c1.75-1.9,3.57-3.72,5.43-5.48,2.16-2.03,4.44-3.96,6.8-5.8,1.82-1.41,3.72-2.77,5.67-4.07l-.15-7.6c10.37-6.32,21.97-10.87,34.35-13.16l5.32,5.74c2.42-.37,4.87-.61,7.34-.76,1.99-.13,4-.19,6.04-.19.95,0,1.9.02,2.86.04,2.29.06,4.59.22,6.84.45l4.78-5.95c12.51,1.75,24.29,5.8,34.91,11.69l.37,7.73c2.14,1.28,4.22,2.68,6.26,4.16,2.42,1.73,4.76,3.59,7.01,5.56,1.77,1.56,3.51,3.2,5.17,4.89l7.55-1.49c8.12,8.96,14.7,19.35,19.26,30.76l-4.63,6.1c.91,2.55,1.69,5.15,2.38,7.79.76,2.88,1.39,5.82,1.86,8.83.41,2.58.71,5.17.93,7.81l6.69,3.68c.06,1.26.09,2.51.09,3.77,0,10.93-1.73,21.45-4.91,31.34Z"/>
  </g>
  <path class="cls-4" d="M366.72,212.39c0,.93-.06,1.84-.22,2.75l-27.58,27.58c-23.59,11.8-60.54,20.71-104.24,24.7-.93.09-1.86.17-2.81.24-13.64,1.17-27.92,1.86-42.64,2.01h-2.84s-.06.02-.11,0c-.89.02-1.75.02-2.64.02h-.3c-2.81,0-5.61-.02-8.4-.06-.91,0-1.82-.02-2.73-.04h-.09c-.91-.02-1.82-.04-2.73-.06-11.84-.26-23.35-.89-34.46-1.84h-.02c-.95-.09-1.88-.17-2.81-.26h-.02c-2.06-.17-4.09-.39-6.13-.58-1.1-.11-2.16-.24-3.25-.37h-.02C51.25,258.64,0,237.39,0,212.39c0-.5.02-.97.06-1.47l29.98-29.98c14.63-6.95,33.98-12.84,56.62-17.23,2.12-.43,4.29-.82,6.47-1.23.87-.13,1.73-.28,2.6-.43.71-.13,1.43-.24,2.16-.37,18.83-3.1,39.61-5.22,61.62-6.1,4.42-.17,8.85-.3,13.35-.39,3.46-.06,6.97-.09,10.48-.09,30.28,0,58.85,2.29,84.05,6.34.71.13,1.45.26,2.16.37.87.15,1.73.28,2.58.43,2.21.39,4.37.78,6.52,1.19,52.81,10.06,88.07,28.22,88.07,48.96Z"/>
  <g>
    <path class="cls-1" d="M71.21,201.59v-9.61h-28.22l-8.16,8.18v15.02h24.35v7.32h-24.35v9.59h28.42l7.97-7.94v-15.54h-24.35v-7.01h24.35Z"/>
    <path class="cls-1" d="M85.6,191.98h-4.16c-2.19,0-3.94,2.06-3.94,4.59s1.75,4.59,3.94,4.59h4.16c1.08,0,2.06-.52,2.79-1.34.69-.84,1.15-1.97,1.15-3.25,0-2.53-1.77-4.59-3.94-4.59ZM77.51,208.75v23.33h12.03v-23.33h-12.03Z"/>
    <path class="cls-1" d="M96.43,181.96v50.13h12.01v-50.13h-12.01Z"/>
    <path class="cls-1" d="M140.82,191.98l-2.86,15.56-.41,2.25-.5,2.66-1.21,6.69-.54,2.92h-5.15l-1.23-6.84-1.6-8.85-.67-3.68-.56-3.14-1.36-7.58h-12.34l.39,1.71,2.58,11.49.02.02,6.04,26.88h22.51l1.88-8.44h.02l1.43-6.41.56-2.55.5-2.14,4.61-20.56h-12.1Z"/>
    <path class="cls-1" d="M168.33,214.62h24.5v-13.77c0-4.89-3.98-8.87-8.87-8.87h-19.5l-8.16,8.18v23.77l8.16,8.16h26.93v-10.02h-23.05v-7.45ZM168.33,201.15h14.33v6.88l-14.33.71v-7.6Z"/>
    <path class="cls-1" d="M207.72,191.98l-8.59,8.59v31.51h12.03v-29.22h16.75v-10.89h-20.19Z"/>
    <path class="cls-1" d="M244.54,194.9c-.56-1.71-1.97-2.92-3.66-2.92h-4.16c-2.16,0-3.94,2.06-3.94,4.59s1.77,4.59,3.94,4.59h4.16c1.1,0,2.08-.52,2.79-1.34.5-.58.87-1.32,1.02-2.14.09-.35.13-.71.13-1.1,0-.58-.09-1.15-.28-1.67ZM232.79,208.75v23.33h12.03v-23.33h-12.03Z"/>
    <path class="cls-1" d="M277.2,191.98v29.65h-13.46v-29.65h-12.03v31.51l8.59,8.59h13.29c8.64,0,15.65-6.99,15.65-15.65v-24.46h-12.03Z"/>
    <path class="cls-1" d="M331.92,201.59v-9.61h-28.22l-8.16,8.18v15.02h24.35v7.32h-24.35v9.59h28.44l7.94-7.94v-15.54h-24.35v-7.01h24.35Z"/>
  </g>
  <g>
    <path class="cls-2" d="M56.42,268.86c-2.45,3.84-4.93,7.67-7.45,11.48-.21.34-.49.77-.79,1.32-.31.55-.62,1.12-.97,1.74-.35.62-.67,1.24-.97,1.84-.05.12-.13.23-.18.32,0-.13,0-.26-.02-.42,0-.7-.05-1.37-.1-2.08-.03-.7-.1-1.36-.15-1.96-.05-.6-.1-1.1-.15-1.5-.71-4.53-1.39-9.05-2.04-13.57-1.66-.38-3.31-.77-4.96-1.17-1.73,7.22-3.47,14.44-5.2,21.66,1.13.27,2.26.54,3.39.8,1.04-4.45,2.09-8.9,3.13-13.35.12-.64.25-1.31.42-2.02.14-.72.31-1.42.44-2.11.07-.32.12-.62.19-.91.03.45.09.87.11,1.32.05.81.11,1.57.17,2.33.09.74.15,1.43.22,2.04.07.61.12,1.11.18,1.51.65,4.26,1.33,8.51,2.04,12.77,1,.22,1.99.44,2.99.66,2.42-3.57,4.8-7.15,7.16-10.75.2-.34.48-.8.8-1.32.33-.55.69-1.14,1.06-1.78.38-.67.75-1.36,1.13-2.05.22-.42.43-.81.64-1.2-.07.34-.15.71-.25,1.1-.15.71-.32,1.42-.46,2.11-.17.71-.33,1.37-.46,1.98-.92,4.45-1.84,8.9-2.76,13.36,1.16.24,2.33.48,3.49.71,1.46-7.28,2.92-14.56,4.38-21.84-1.68-.34-3.36-.68-5.04-1.03Z"/>
    <path class="cls-2" d="M81.42,283.13c-.45-1.37-1.2-2.54-2.25-3.43-1.07-.92-2.4-1.5-3.96-1.78-1.59-.28-3.02-.18-4.33.32-1.29.48-2.39,1.32-3.28,2.46-.9,1.16-1.52,2.6-1.84,4.31-.32,1.68-.26,3.22.17,4.61.43,1.41,1.18,2.57,2.24,3.48,1.09.94,2.43,1.54,4.06,1.82,1.61.28,3.1.18,4.44-.33,1.31-.49,2.41-1.33,3.29-2.51.88-1.15,1.45-2.59,1.73-4.27.28-1.71.19-3.28-.26-4.67ZM77.3,290c-.48.81-1.12,1.44-1.88,1.85-.76.41-1.69.53-2.72.34-1.03-.18-1.86-.61-2.44-1.25-.58-.64-.94-1.45-1.11-2.37-.18-.93-.18-1.9,0-2.94.19-1.06.55-1.99,1.04-2.82.49-.8,1.1-1.41,1.85-1.81.76-.43,1.66-.52,2.68-.34,1.01.18,1.83.57,2.4,1.23.57.63.96,1.41,1.14,2.36.19.92.18,1.91,0,2.98-.17,1.04-.49,1.96-.97,2.77Z"/>
    <path class="cls-2" d="M103.83,286.27c-.48-1.35-1.19-2.43-2.17-3.24-.95-.81-2.12-1.32-3.47-1.51-1.07-.15-1.93-.09-2.61.17-.68.23-1.25.56-1.67.98-.42.4-.76.75-1.01,1.07-.06,0-.12-.02-.18-.03.4-2.73.8-5.47,1.2-8.2-1.1-.16-2.19-.32-3.29-.49-1.11,7.34-2.22,14.69-3.33,22.03,1.1.17,2.2.33,3.31.49.13-.87.25-1.74.38-2.61.1.01.19.03.29.04.15.4.38.84.68,1.34.33.5.79.98,1.42,1.42.6.44,1.44.74,2.48.88,1.41.19,2.71.01,3.89-.54,1.18-.53,2.14-1.42,2.93-2.61.78-1.19,1.29-2.7,1.51-4.47.23-1.79.11-3.38-.34-4.73ZM99.85,293.42c-.45.83-1.06,1.46-1.78,1.87-.74.43-1.61.57-2.6.43-.96-.13-1.73-.5-2.34-1.06-.6-.59-.99-1.36-1.23-2.28-.21-.92-.24-1.94-.08-3.08.17-1.17.5-2.14.95-2.96.46-.8,1.04-1.4,1.77-1.78.73-.38,1.58-.51,2.52-.38.97.13,1.75.49,2.34,1.11.6.59.99,1.32,1.21,2.24.22.91.24,1.91.1,3-.14,1.1-.43,2.05-.88,2.9Z"/>
    <path class="cls-2" d="M116.24,278.85c-.07-.31-.22-.6-.44-.88-.36-.42-.84-.67-1.4-.74-.58-.07-1.08.08-1.53.41-.14.11-.28.22-.37.36-.21.28-.35.59-.39.94-.06.52.09,1.02.45,1.44.36.42.82.67,1.4.74.56.06,1.09-.08,1.53-.41.45-.33.72-.76.78-1.3.02-.2.02-.38-.04-.56ZM112.01,283.46c-.64,5.54-1.27,11.08-1.91,16.62,1.14.13,2.28.26,3.42.38.61-5.54,1.21-11.09,1.82-16.63-1.11-.12-2.22-.25-3.33-.37Z"/>
    <path class="cls-2" d="M123.46,279.09c-.72,7.39-1.44,14.78-2.15,22.17,1.14.11,2.28.22,3.43.32.68-7.4,1.36-14.79,2.03-22.19-1.1-.1-2.2-.21-3.31-.31Z"/>
    <path class="cls-2" d="M148,294.74c.08-1.5-.05-2.8-.43-3.87-.35-1.1-.89-1.99-1.57-2.71-.68-.69-1.46-1.25-2.34-1.6-.87-.38-1.81-.6-2.78-.66-1.58-.11-2.98.17-4.21.81-1.23.64-2.2,1.6-2.97,2.82-.74,1.25-1.18,2.75-1.31,4.46-.14,1.73.05,3.26.63,4.59.58,1.33,1.44,2.41,2.64,3.2,1.18.79,2.65,1.25,4.35,1.37,1.26.08,2.37-.02,3.39-.31.99-.32,1.86-.77,2.55-1.38.69-.64,1.21-1.36,1.54-2.2-1.05-.3-2.11-.61-3.16-.92-.24.51-.55.92-.94,1.25-.41.33-.87.57-1.41.72-.53.14-1.11.18-1.76.13-.97-.06-1.81-.33-2.51-.78-.7-.45-1.23-1.1-1.56-1.93-.31-.73-.46-1.6-.43-2.6,4.07.31,8.15.57,12.22.8.02-.39.04-.79.07-1.18ZM135.92,292.67c.1-.67.33-1.31.66-1.89.39-.73.95-1.26,1.64-1.67.72-.4,1.53-.57,2.48-.51.95.06,1.73.34,2.34.83.61.47,1.06,1.1,1.32,1.9.2.59.31,1.23.35,1.93-2.93-.18-5.86-.38-8.8-.6Z"/>
    <path class="cls-2" d="M185.15,281.99c-.48,1.27-.96,2.55-1.44,3.82-1.13,2.99-2.27,5.98-3.43,8.96-.16.38-.31.85-.5,1.45-.21.6-.4,1.23-.58,1.91-.21.68-.4,1.35-.59,2.01-.03.1-.05.2-.08.3-.03-.1-.08-.23-.1-.35-.18-.68-.35-1.33-.53-2.01-.2-.68-.38-1.31-.55-1.89-.18-.58-.33-1.06-.48-1.44-1.15-3.03-2.28-6.06-3.4-9.09-.46-1.25-.91-2.51-1.36-3.77-1.69-.03-3.38-.07-5.07-.11-.2,7.42-.39,14.85-.59,22.27,1.15.03,2.31.06,3.46.08.08-4,.17-8,.25-12,0-.48.02-1.05.01-1.71-.01-.65,0-1.33,0-2.06.02-.73,0-1.46,0-2.16,0-.23,0-.45-.01-.65.03-.12.03-.23,0-.33.02.1.07.23.1.33.09.33.19.66.29.99.24.78.45,1.52.67,2.25.22.71.44,1.36.6,1.95.2.58.37,1.06.51,1.44,1.51,4.03,3.05,8.05,4.62,12.07,1.01.01,2.03.02,3.04.02,1.6-3.99,3.18-7.99,4.72-12,.15-.38.33-.88.54-1.46.2-.6.41-1.26.63-1.96.23-.73.45-1.48.71-2.24.08-.28.15-.55.23-.83.05-.15.1-.28.15-.43-.02.15-.02.28-.02.43,0,.22,0,.44,0,.65-.02.73-.02,1.46-.04,2.16,0,.73-.02,1.41-.01,2.03-.02.63-.02,1.18-.02,1.63.02,4,.04,8,.07,12.01,1.18,0,2.36-.02,3.54-.03-.08-7.43-.16-14.85-.25-22.28-1.7.02-3.39.03-5.09.04Z"/>
    <path class="cls-2" d="M213.17,295.03c-.07-1.51-.34-2.78-.82-3.81-.46-1.06-1.09-1.89-1.84-2.53-.75-.62-1.58-1.09-2.49-1.36-.91-.29-1.86-.41-2.83-.37-1.58.05-2.95.47-4.11,1.24-1.16.76-2.03,1.81-2.67,3.11-.61,1.32-.89,2.86-.85,4.57.04,1.73.38,3.23,1.09,4.5.71,1.26,1.68,2.25,2.95,2.91,1.25.67,2.76.97,4.47.91,1.26-.04,2.36-.26,3.34-.65.95-.42,1.77-.95,2.4-1.64.62-.71,1.06-1.48,1.31-2.35-1.08-.19-2.16-.39-3.24-.59-.19.54-.46.97-.81,1.34-.38.37-.81.66-1.33.86-.52.2-1.09.29-1.74.32-.97.03-1.84-.14-2.58-.52-.74-.38-1.34-.96-1.75-1.76-.38-.69-.62-1.54-.7-2.54,4.08-.11,8.16-.27,12.24-.46-.02-.39-.04-.79-.06-1.18ZM200.94,294.21c.03-.68.2-1.34.46-1.95.31-.76.81-1.36,1.46-1.83.68-.47,1.47-.73,2.42-.76.95-.03,1.75.16,2.41.59.66.4,1.17.98,1.51,1.75.26.57.44,1.19.54,1.89-2.94.12-5.87.22-8.81.31Z"/>
    <path class="cls-2" d="M231.52,296.97c-.07.46-.19.9-.4,1.29-.23.37-.5.72-.81,1.02-.35.28-.72.51-1.16.69-.43.18-.92.29-1.47.33-1.04.07-1.92-.15-2.64-.63-.74-.48-1.28-1.15-1.67-2.01-.39-.86-.63-1.82-.7-2.88-.07-1.08.05-2.07.33-2.99.28-.9.72-1.63,1.38-2.2.63-.6,1.46-.9,2.48-.97.54-.04,1,0,1.45.1.45.12.85.29,1.2.52.33.23.63.51.92.86.26.33.44.7.6,1.11,1.04-.33,2.09-.66,3.13-1-.27-.73-.66-1.41-1.14-1.98-.46-.57-1.04-1.05-1.68-1.43-.67-.38-1.38-.65-2.17-.82-.78-.14-1.63-.21-2.5-.15-1.61.11-2.96.55-4.12,1.35-1.13.78-1.99,1.86-2.58,3.18-.59,1.34-.84,2.89-.74,4.62.1,1.7.52,3.19,1.27,4.43.75,1.26,1.75,2.21,3,2.84,1.28.65,2.72.91,4.37.79.92-.06,1.75-.22,2.54-.51.77-.31,1.48-.69,2.07-1.16.62-.5,1.1-1.07,1.49-1.73.42-.64.68-1.39.82-2.18-1.09-.16-2.19-.33-3.28-.5Z"/>
    <path class="cls-2" d="M254.35,286.16c-.59-.87-1.33-1.49-2.25-1.87-.92-.38-1.96-.52-3.11-.4-1.32.14-2.43.61-3.31,1.38-.64.59-1.15,1.35-1.5,2.34-.28-2.84-.55-5.68-.83-8.52-1.09.11-2.19.21-3.28.31.68,7.4,1.36,14.79,2.04,22.19,1.14-.1,2.28-.21,3.43-.32-.32-3.28-.64-6.57-.96-9.85-.09-.9.02-1.67.29-2.3.3-.66.71-1.16,1.3-1.54.56-.38,1.2-.63,1.97-.71,1.1-.11,2.03.14,2.74.75.71.61,1.12,1.49,1.25,2.69.37,3.39.74,6.77,1.11,10.16,1.14-.12,2.28-.25,3.42-.38-.4-3.52-.81-7.04-1.21-10.56-.16-1.37-.52-2.49-1.11-3.36Z"/>
    <path class="cls-2" d="M275.19,283.46c-.54-.68-1.16-1.17-1.91-1.5-.75-.32-1.5-.49-2.28-.54-.79-.07-1.53-.04-2.22.06-.99.14-1.91.41-2.81.81-.88.4-1.66.95-2.29,1.64-.64.69-1.1,1.56-1.36,2.58,1.08.14,2.17.28,3.25.42.13-.4.31-.8.6-1.19.29-.39.68-.72,1.19-1.02.51-.3,1.13-.48,1.87-.58.71-.1,1.31-.08,1.83.1.52.16.92.43,1.23.81.29.39.49.89.58,1.52,0,.03,0,.07.01.1.05.37-.06.67-.34.89-.26.21-.7.4-1.33.57-.63.16-1.44.38-2.42.64-.79.18-1.56.44-2.31.72-.77.28-1.43.64-2.03,1.08-.6.43-1.05,1-1.34,1.64-.29.64-.4,1.44-.28,2.39.13,1.07.51,1.96,1.12,2.64.61.68,1.39,1.16,2.33,1.45.94.28,1.95.33,3.05.18.94-.13,1.73-.36,2.37-.71.64-.37,1.17-.77,1.55-1.23.38-.49.66-.93.84-1.39.05,0,.1-.01.16-.02.11.75.22,1.51.32,2.26,1.1-.16,2.2-.32,3.31-.48-.54-3.66-1.09-7.32-1.63-10.98-.18-1.19-.56-2.15-1.07-2.84ZM273.63,291.81c.09.65.02,1.27-.26,1.89-.25.62-.71,1.14-1.31,1.58-.6.44-1.38.72-2.32.85-.62.08-1.2.09-1.72-.05-.49-.11-.91-.31-1.25-.65-.33-.31-.52-.74-.59-1.27-.08-.57.02-1.04.29-1.43.26-.39.64-.72,1.16-.96.49-.27,1.06-.47,1.67-.63.28-.06.61-.16,1.01-.27.38-.1.81-.21,1.24-.35.43-.14.8-.29,1.12-.41.35-.15.56-.31.65-.42.1.7.2,1.41.3,2.11Z"/>
    <path class="cls-2" d="M296.8,279.85c-.65-.83-1.43-1.4-2.38-1.71-.94-.31-1.97-.39-3.11-.19-1.34.23-2.39.77-3.21,1.6-.67.67-1.14,1.59-1.4,2.71-.19-1.07-.37-2.14-.56-3.22-1.05.18-2.11.35-3.16.52.89,5.5,1.78,11.01,2.66,16.51,1.13-.18,2.27-.37,3.4-.56-.54-3.25-1.09-6.51-1.63-9.76-.15-.89-.12-1.66.14-2.32.23-.67.64-1.2,1.17-1.62.55-.43,1.19-.71,1.92-.84,1.12-.19,2.04,0,2.79.56.75.55,1.25,1.41,1.46,2.6.6,3.35,1.2,6.71,1.8,10.06,1.13-.2,2.26-.41,3.4-.62-.64-3.48-1.29-6.97-1.93-10.45-.25-1.36-.72-2.45-1.37-3.27Z"/>
    <path class="cls-2" d="M306.53,269.3c-.47-.29-1.01-.38-1.56-.27-.57.11-1.01.41-1.33.85-.33.45-.46.96-.36,1.48.1.52.42.94.89,1.23.47.29.99.39,1.57.28.55-.11,1.01-.41,1.34-.86.33-.45.44-.93.33-1.48-.11-.52-.4-.94-.87-1.23ZM304.57,275.69c1.08,5.47,2.16,10.94,3.24,16.41,1.12-.22,2.24-.45,3.36-.67-1.11-5.46-2.22-10.93-3.33-16.39-1.09.22-2.18.44-3.27.66Z"/>
    <path class="cls-2" d="M328.87,281.95c0,.46-.08.92-.22,1.34-.15.4-.38.79-.65,1.13-.3.33-.64.61-1.04.86-.4.25-.87.43-1.39.55-1.03.23-1.96.16-2.74-.21-.78-.37-1.45-.94-1.97-1.72-.52-.78-.89-1.71-1.11-2.74-.23-1.05-.29-2.04-.16-3,.14-.93.49-1.73,1.03-2.39.54-.69,1.34-1.12,2.34-1.35.5-.11.97-.15,1.43-.12.46.05.88.16,1.27.33.38.17.73.4,1.04.71.31.29.57.61.77,1.01.99-.49,1.97-.98,2.96-1.48-.38-.68-.84-1.3-1.41-1.78-.57-.48-1.22-.87-1.92-1.15-.73-.27-1.48-.43-2.28-.47-.8-.02-1.63.04-2.5.24-1.58.36-2.86,1.01-3.88,1.98-1,.94-1.69,2.15-2.08,3.54-.38,1.42-.39,2.99-.03,4.68.36,1.67,1.01,3.07,1.94,4.18.94,1.13,2.08,1.91,3.42,2.34,1.37.44,2.84.48,4.46.11.9-.21,1.73-.5,2.45-.9.74-.43,1.36-.91,1.9-1.48.51-.59.93-1.23,1.22-1.94.3-.69.43-1.47.45-2.28-1.1,0-2.21.01-3.31.01Z"/>
  </g>
  <g>
    <path class="cls-5" d="M206.08,100.33c-5.58,1.34-12.16,2.51-18.64,3.25-5.24.63-10.39,1-14.87,1-.28-.39-.58-.78-.89-1.17,2.64-5.74,4.26-10.09,6.56-14.78,1.04-2.12,2.21-4.33,3.68-6.77.11-.17.24-.32.39-.48,1.84-1.67,6.95-1.34,10.24-.93.24.02.48.06.71.09,8.2,1.02,11.19,1.23,11.9,2.58l.91,17.23Z"/>
    <path class="cls-5" d="M162.96,143.94c.07-4.69,2.75-8.54,5.84-8.38,2.94.16,5.34,3.86,5.42,8.36.09,5.01-2.51,8.93-5.8,8.77-3.08-.15-5.53-4.08-5.46-8.75Z"/>
    <path class="cls-5" d="M159.27,113.31c0,1.06-.26,2.06-.69,2.99-.45.93-1.08,1.8-1.88,2.58-2.92,2.84-7.99,4.5-13.07,4.11-.41-.02-.82-.06-1.21-.13-.06,0-.13-.02-.17-.02-.41-.06-.8-.13-1.21-.22-.43-.11-.89-.22-1.32-.35-1.02-.3-1.41-1.54-.78-2.36.02,0,.02-.02.02-.02,1.02-1.3,1.97-2.51,3.14-2.86,5.61-1.58,11.39-2.51,17.19-3.72Z"/>
    <path class="cls-5" d="M134.18,118.27v1.28h-30.22v-1.6c9.61-.81,19.7-1.72,30.22.32Z"/>
    <path class="cls-3" d="M134.18,126.32v1.26c-10.56,1.06-20.69,1.17-30.22,0v-1.6c10.06.19,20.15-.71,30.22.35Z"/>
    <path class="cls-5" d="M133.16,122.19c-.02.35-.02.69-.02,1.06h-29.18v-1.06h29.2Z"/>
    <path class="cls-5" d="M246.65,136.32v.19c-.04,1.67-.56,3.14-1.36,4.11,0,.02-.02.02-.04.04-.61.74-1.39,1.17-2.23,1.17-.89,0-1.69-.45-2.32-1.26-.02-.02-.02-.04-.02-.04-.67-.87-1.15-2.1-1.28-3.48,0-.19-.02-.41-.02-.61,0-.17.02-.35.02-.5v-.02c.04-1.1.3-2.12.71-2.94.15-.32.35-.65.56-.91,0-.02.02-.02.02-.02.63-.8,1.43-1.28,2.32-1.28.56,0,1.08.19,1.56.54.5.35.95.89,1.28,1.56.5.93.8,2.14.8,3.44Z"/>
    <path class="cls-5" d="M103.38,115.17c.26,3.72-1.69,6.64-5.63,7.14,0,0-1.06-6.88,5.45-9.85l-.11.19c-.13.5.22,1.71.28,2.51Z"/>
    <path class="cls-1" d="M258.61,121.61c-2.77-1.26-1.39-2.86-1.32-4.37.24-5.41,1.3-10.91.67-16.21-.91-7.92-3.01-15.67-4.57-23.51-.82-4.18-3.42-6.13-7.55-6.62-8.38-1.02-16.75-1.95-25.06-3.35-5.52-.93-11.04-1.62-16.54-2.08-16.73-1.36-33.46-.61-50.24,1.67-7.94,1.06-12.86,6.26-17.75,12.03-3.7,3.38-7.25,7.77-10.69,11.67-3.25,3.9-7.03,8.18-8.57,12.92-4.74,1.06-9.24,5.74-13.79,8.7l-.11.19c-.13.5.22,1.71.28,2.51.26,3.72-1.69,6.64-5.63,7.14,0,4.33.41,8.85-.13,13.22-.5,3.9.56,6.1,4.16,7.58,1.17.48,2.38,1.84,2.79,3.07,1.9,5.67,4.85,8.18,10.61,8.55,5.84.37,9.03-1.69,11.67-7.01.54-1.13,2.32-2.34,3.53-2.36,6.04-.11,12.1.35,18.14.24,3.81-.09,5.89.67,7.1,4.93.61,2.16,2.06,3.87,3.92,5.04,3.94,2.51,9.72,2.6,13.35-.39.48-.37.93-.8,1.32-1.3,3.83-4.78,3.7-11.56,1.67-17.06-.84-2.32-2.16-4.7-4.44-5.82-2.1-1.04-4.55-1.15-6.84-1.1-.17.02-.37-.35-.54-.54,3.05-5.78,10.61-6.58,13.77,1.28,1.58,3.94,1.99,8.35,3.03,12.97,16.73-2.16,33.79-4.37,50.95-6.62.37,1.54.65,2.6.87,3.68.76,3.81,2.79,5.89,6.97,5.8,4.18-.11,6.49-2.86,7.6-6.54.3-1.04.37-1.82.37-3.12.02-.37.02-.76,0-1.17-.02-2.75-.67-5.02-1.43-7.1-.8-2.12-4.2-4.74-7.45-3.46.48-2.71,3.16-3.7,4.44-3.38,1.67.45,3.46,2.38,4.13,4.09,1,2.51,1.02,5.39,1.54,8.59,2.66-1.15,5.28-2.08,7.73-3.38,2.08-1.08,3.79-8.61,2.06-9.39ZM103.96,122.17h29.2v.02c-.02.35-.02.67-.02,1.04h-29.18v-1.06ZM134.17,127.56h-30.22v-1.6c3.61.06,7.23,0,10.84-.06,1.32-.02,2.62-.04,3.92-.06,5.17-.09,10.3-.06,15.45.48v1.26ZM134.17,119.53h-30.22v-1.6h.24c9.89.17,19.83-.69,29.72.3h.04c.06,0,.15.02.22.02v1.28ZM159.26,113.32c0,1.06-.26,2.03-.69,2.97-.11.24-.24.45-.37.69-.26.43-.58.87-.95,1.28-.17.22-.37.41-.56.61-2.92,2.84-7.99,4.5-13.07,4.11-.39-.02-.8-.06-1.21-.13-.06,0-.13-.02-.17-.02-.19-.02-.41-.04-.61-.09-.22-.04-.41-.09-.61-.13-.17-.04-.37-.09-.54-.13h-.04s-.11-.02-.15-.04c-.19-.04-.39-.11-.58-.17-.06-.02-.13-.04-.19-.06-.04-.02-.06-.02-.09-.04-.11-.04-.19-.11-.26-.17-.11-.09-.19-.17-.26-.26-.37-.54-.39-1.26.02-1.8v-.02h.02v-.02c.24-.32.48-.63.76-.93.24-.3.5-.58.76-.84.5-.52,1.04-.91,1.62-1.08,5.61-1.58,11.39-2.51,17.19-3.72v.02ZM165.52,137c.15-.15.3-.3.45-.43h.02c.15-.15.3-.26.48-.35.17-.13.35-.22.52-.28.17-.11.35-.17.54-.22.15-.06.32-.11.5-.13.24-.04.5-.06.76-.04s.52.06.78.13c.17.04.35.11.52.17.11.04.24.11.35.17.15.06.3.17.45.28.15.09.3.22.45.35s.3.28.43.43c.43.43.82,1,1.17,1.6.11.19.22.41.3.63,0,.02.02.02.02.02.35.82.63,1.75.78,2.75t.02.04c.09.56.13,1.17.15,1.77v.26c0,.37-.02.71-.04,1.04-.02.37-.06.74-.13,1.08-.11.69-.28,1.34-.5,1.95-.04.15-.09.28-.15.41-.11.26-.22.52-.35.76-.35.71-.8,1.34-1.28,1.84-.13.15-.3.28-.45.41l-.02.02c-.3.26-.63.45-.97.63-.19.09-.37.15-.54.19-.45.13-.89.19-1.36.17-.28-.02-.56-.06-.84-.13-.32-.08-.62-.25-.92-.42-.21-.12-.41-.25-.6-.41-.24-.19-.48-.37-.69-.6-.15-.15-.28-.32-.43-.5-.26-.35-.5-.74-.74-1.15-.22-.41-.41-.87-.58-1.34-.15-.48-.3-.97-.41-1.49-.09-.43-.15-.87-.17-1.32-.04-.3-.06-.61-.06-.91v-.48c0-.58.06-1.13.13-1.67.35-2.19,1.23-4.07,2.42-5.26ZM170.23,96.74c-.87,1.69-1.73,3.33-2.62,4.98-.04.11-.13.19-.22.28,0,.02-.02.04-.06.06-.09.09-.17.15-.28.24-.15.11-.32.22-.52.28-.15.09-.3.15-.48.22-.35.13-.74.24-1.1.32-.37.11-.76.15-1.1.17-.19,0-.35.02-.52.02-4.72,0-9.44-.09-14.18-.15-5.91-.13-11.84-.24-17.75-.13-2.94.04-5.91.13-8.85.26-1.43.06-2.88.15-4.31.26-.37.02-.71.09-1.08.17h-.02c.71-1.04,1.45-2.08,2.21-3.1,1.62-2.27,3.29-4.52,5-6.77.65-.84,1.3-1.69,1.97-2.53.71-.93,1.43-1.84,2.16-2.75.89-1.1,1.77-2.21,2.68-3.31.82-1,1.65-1.99,2.47-2.97.82-1,1.65-1.95,2.47-2.92v-.02c14.52-.58,28.57-1.13,43.66-1.71v.02h-.02c-.54,1.1-1.08,2.19-1.6,3.25-2.79,5.63-5.32,10.8-7.9,15.82ZM197.1,102.17c-3.16.54-6.41,1.02-9.65,1.39-5.24.63-10.39,1-14.87,1-.28-.39-.58-.78-.89-1.17.26-.54.5-1.06.71-1.58.24-.52.45-1.02.67-1.52.43-.97.87-1.93,1.26-2.86.52-1.23,1.02-2.42,1.54-3.57.28-.65.54-1.28.82-1.9.24-.52.48-1.06.74-1.58.26-.58.54-1.17.82-1.77,1.04-2.12,2.21-4.33,3.68-6.77.11-.17.22-.3.39-.45v-.02c1.84-1.67,6.95-1.34,10.24-.93.24.02.48.06.71.09,1.34.17,2.55.32,3.64.45.15.02.3.02.45.06,2.38.28,4.11.52,5.32.8.22.04.41.09.58.15.09,0,.15.02.24.06.13.04.28.09.39.13.39.13.67.3.89.48.09.04.17.13.22.22.09.06.13.13.17.22l.91,17.23c-2.79.67-5.82,1.3-8.98,1.86ZM239.39,135.94v-.02c.04-1.1.3-2.12.71-2.94.15-.32.35-.63.56-.89v-.02h.02v-.02c.06-.09.15-.17.24-.26.06-.11.17-.19.26-.26.09-.09.19-.17.28-.22.09-.09.19-.15.28-.17.19-.13.39-.22.61-.26.22-.09.43-.11.65-.11.28,0,.54.04.8.15.13.04.26.09.39.17.13.04.26.13.37.22.13.09.24.19.37.32.13.09.24.22.35.35.22.26.41.56.56.89.5.93.8,2.14.8,3.44v.19c-.04,1.67-.56,3.14-1.36,4.11v.02s-.02,0-.04.02v.02l-.48.48c-.26.22-.54.39-.84.5-.13.06-.28.11-.43.13h-.02c-.15.02-.3.04-.45.04s-.32-.02-.48-.04h-.02c-.15-.04-.3-.09-.45-.15-.15-.04-.3-.13-.45-.22-.13-.09-.28-.19-.41-.3-.17-.15-.35-.35-.5-.54-.02-.02-.02-.04-.02-.04-.17-.22-.32-.45-.45-.71-.15-.26-.28-.54-.39-.84-.22-.58-.37-1.23-.43-1.93,0-.19-.02-.41-.02-.61,0-.17.02-.35.02-.5Z"/>
    <path class="cls-3" d="M179.76,77.67c-4.42,8.85-8.12,16.54-12.14,24.05-.54,1.02-2.81,1.6-4.29,1.62-15.04.02-30.13-.89-45.09.24-.37.02-.74.09-1.1.17,5.78-8.33,12.36-16.67,18.96-24.37,14.52-.58,28.57-1.13,43.66-1.71Z"/>
  </g>
</svg>