<?xml version="1.0" encoding="UTF-8"?>
<svg id="Calque_1" data-name="Calque 1" xmlns="http://www.w3.org/2000/svg" viewBox="0 0 298.81 295.7">
  <defs>
    <style>
      .cls-1 {
        fill: #050505;
      }

      .cls-1, .cls-2, .cls-3, .cls-4, .cls-5 {
        stroke-width: 0px;
      }

      .cls-2 {
        fill: #e30613;
      }

      .cls-3 {
        fill: #f6f6f6;
      }

      .cls-4 {
        fill: #9f9f9f;
      }

      .cls-5 {
        fill: #fff;
      }
    </style>
  </defs>
  <path class="cls-5" d="M148.64,37.81c-61.69,0-111.95,50.23-111.95,111.97,0,14.11,2.66,27.62,7.41,40.06,3.14,8.09,7.13,15.71,11.96,22.76,1.87,2.76,3.84,5.39,5.92,7.94,1.64,2,3.31,3.92,5.06,5.77,5.16,5.49,10.83,10.45,17,14.82h.03c3.64,2.61,7.44,4.98,11.38,7.11,3.82,2.07,7.79,3.95,11.89,5.59,3.47,1.37,6.96,2.58,10.6,3.62,9.76,2.78,20.08,4.27,30.71,4.27,3.47,0,6.9-.15,10.27-.48,3.09-.25,6.1-.66,9.05-1.19h.03c4.81-.83,9.46-1.97,14.04-3.39h.03c8.93-2.81,17.43-6.73,25.27-11.58.63-.38,1.26-.76,1.85-1.16.05,0,.05-.03.08-.03,7.34-4.76,14.14-10.34,20.13-16.64l.03-.03c.94-.96,1.85-1.92,2.71-2.91,9.05-10.12,16.26-21.85,21.17-34.75,4.76-12.37,7.36-25.77,7.36-39.79,0-61.74-50.23-111.97-112-111.97ZM250.27,189.07c-6.25,16.19-16.31,30.53-29.04,41.91-1.57,1.42-3.16,2.76-4.83,4.07-10.14,8.09-21.73,14.39-34.35,18.44h-.03c-4.55,1.49-9.23,2.66-14.04,3.54h-.03c-6.27,1.11-12.72,1.69-19.32,1.69-5.64,0-11.23-.43-16.64-1.29-4.81-.73-9.48-1.77-14.06-3.14-3.36-.99-6.68-2.12-9.94-3.44-4.12-1.67-8.12-3.57-11.96-5.72-4.48-2.48-8.75-5.24-12.75-8.3-5.03-3.74-9.69-7.94-13.96-12.52-2.61-2.73-5.03-5.61-7.33-8.62-.78-1.01-1.52-2.05-2.25-3.09-5.11-7.18-9.33-14.97-12.6-23.27-4.78-12.27-7.44-25.6-7.44-39.56,0-60.1,48.87-108.96,108.94-108.96s108.99,48.87,108.99,108.96c0,13.84-2.63,27.09-7.36,39.28Z"/>
  <path class="cls-4" d="M268.13,145.38l-7.82-4.3c.23,2.86.33,5.77.33,8.7,0,13.58-2.45,26.58-6.93,38.62l8.78-2c3.72-11.56,5.74-23.85,5.74-36.62,0-1.47-.03-2.93-.1-4.4ZM239.12,215.62c-2.18,3.01-4.53,5.92-7.01,8.7-.86.99-1.77,1.95-2.71,2.91l-.03.03c-5.99,6.3-12.8,11.89-20.13,16.64-.03,0-.03.03-.08.03-.58.4-1.21.78-1.85,1.16-1.06.66-2.12,1.29-3.19,1.9l7.94,4.07c3.21-2,6.3-4.15,9.28-6.45,2.78-2.12,5.46-4.38,8.02-6.73l.03-.03c4.55-4.17,8.8-8.68,12.65-13.53.1-.13.2-.25.28-.38l-3.21-8.32ZM95.46,248.25c-3.95-2.12-7.74-4.5-11.38-7.11h-.03c-6.17-4.38-11.84-9.33-17-14.82-1.75-1.85-3.41-3.77-5.06-5.77-.33-.43-.68-.83-.99-1.26l-2.68,8.7c1.19,1.39,2.43,2.73,3.67,4.05,2.61,2.71,5.24,5.29,8.07,7.71l.05.03c4.93,4.33,10.22,8.25,15.83,11.71,1.24.78,2.5,1.54,3.77,2.25l7.54-4.55c-.61-.3-1.19-.61-1.8-.94ZM44.11,189.85c-4.76-12.44-7.41-25.95-7.41-40.06,0-1.42.03-2.78.08-4.17l-7.66,4.93c.1,14.32,2.73,28.02,7.44,40.72l8.68,1.37c-.38-.91-.76-1.85-1.11-2.78ZM56.86,73.3c-9.03,10.83-16.19,23.24-20.97,36.8l5.79,6.63c4.93-15.91,13.3-30.3,24.23-42.32l-9.05-1.11ZM168,260.06h-.03c-2.96.53-5.97.94-9.05,1.19-3.36.33-6.8.48-10.27.48-7.16,0-14.16-.68-20.97-1.97l3.49,8.27c5.69.86,11.53,1.29,17.48,1.29,3.47,0,6.91-.15,10.27-.46,3.09-.25,6.1-.61,9.05-1.11h.03c1.14-.18,2.25-.38,3.36-.61l2.86-8.35c-2.05.48-4.12.91-6.22,1.26ZM237.17,69.45l-8.83,1.75c11.46,11.61,20.39,25.67,25.93,41.33l5.41-7.13c-5.34-13.33-13.03-25.47-22.51-35.94ZM206.36,45.1c-12.42-6.88-26.18-11.61-40.8-13.66l-5.59,6.96c17,1.69,32.91,7.23,46.82,15.73l-.43-9.03ZM126.79,32.22c-14.47,2.68-28.02,7.99-40.14,15.38l.18,8.88c13.61-9.05,29.29-15.2,46.18-17.55l-6.22-6.7Z"/>
  <g id="_Répétition_radiale_" data-name="&amp;lt;Répétition radiale&amp;gt;">
    <path class="cls-4" d="M286.47,140.2l-16.82-9.26-1.67-7.28-.86-5.94,10.62-14.01,8.78-11.61-7.18-12.65-9.36-16.44-6.96-12.27-13.84,2.73-18.82,3.72-5.89-4.48-4.55-4.05-.89-17.55-.73-14.54-13.63-5.06-17.73-6.6-13.2-4.91-8.85,10.98-12.04,14.95-7.31.35h-.03l-6.12-.18-11.96-12.87-9.91-10.67-13.71,4.88-17.81,6.35-13.28,4.73.28,14.09.38,19.2-5.49,5.08-4.7,3.72-17.43-2.18-14.44-1.82-7.39,12.57-9.56,16.31-7.13,12.17,9.28,10.6,12.62,14.44-.94,7.44v.03l-1.21,5.84-14.75,9.54-12.24,7.92,2.43,14.34,3.16,18.64,2.35,13.91,13.91,2.18,18.97,2.93,3.97,6.15,2.93,5.44-5.19,16.77-4.27,13.94,11.08,9.43,14.39,12.24,10.75,9.13,12.06-7.28,16.42-9.91,6.98,2.15,5.74,2.28,6.83,16.19,5.67,13.41,14.54.1,18.92.13,14.11.1,4.55-13.33,6.2-18.16,6.83-2.88,5.77-1.9,15.63,8.02,12.95,6.63,11.23-9.28,14.57-12.04,10.85-9-5.08-13.15-6.93-17.88,3.34-6.55,3.24-5.21,17.12-3.92,14.19-3.24,2.63-14.32,3.41-18.59,2.55-13.89-12.34-6.8ZM262.49,186.41l-8.78,2c-.13.38-.28.78-.43,1.16-1.09,2.86-2.3,5.69-3.62,8.42-1.54,3.21-3.21,6.35-5.03,9.38-1.72,2.83-3.54,5.59-5.51,8.25l3.21,8.32c-.08.13-.18.25-.28.38-3.84,4.86-8.09,9.36-12.65,13.53l-.03.03c-2.55,2.35-5.24,4.6-8.02,6.73-2.98,2.3-6.07,4.45-9.28,6.45l-7.94-4.07c-3.19,1.85-6.5,3.52-9.86,5.03-3.24,1.47-6.58,2.78-9.97,3.9-.76.28-1.49.53-2.25.76h-.03c-2.58.78-5.19,1.52-7.82,2.12l-2.86,8.35c-1.11.23-2.23.43-3.36.61h-.03c-2.96.51-5.97.86-9.05,1.11-3.36.3-6.8.46-10.27.46-5.94,0-11.79-.43-17.48-1.29l-3.49-8.27c-3.29-.63-6.55-1.39-9.74-2.3-.4-.13-.81-.23-1.19-.35-3.21-.96-6.32-2.05-9.41-3.26-.25-.1-.48-.2-.73-.3-3.21-1.32-6.32-2.76-9.36-4.35l-7.54,4.55c-1.26-.71-2.53-1.47-3.77-2.25-5.61-3.47-10.9-7.39-15.83-11.71l-.05-.03c-2.83-2.43-5.46-5.01-8.07-7.71-1.24-1.32-2.48-2.66-3.67-4.05l2.68-8.7c-1.75-2.15-3.36-4.38-4.93-6.68-.46-.66-.89-1.32-1.32-2-1.95-2.96-3.74-6.02-5.39-9.18-1.52-2.86-2.88-5.79-4.15-8.8l-8.68-1.37c-4.7-12.7-7.34-26.41-7.44-40.72l7.66-4.93v-.03c.13-3.31.4-6.6.81-9.84.43-3.52,1.04-6.98,1.82-10.4.63-2.91,1.39-5.79,2.28-8.62l-5.79-6.63c4.78-13.56,11.94-25.98,20.97-36.8l9.05,1.11c2.05-2.23,4.17-4.35,6.35-6.4,2.53-2.38,5.19-4.63,7.94-6.78,2.12-1.64,4.35-3.24,6.63-4.76l-.18-8.88c12.12-7.39,25.67-12.7,40.14-15.38l6.22,6.7c2.83-.43,5.69-.71,8.57-.89,2.33-.15,4.68-.23,7.06-.23,1.11,0,2.23.03,3.34.05,2.68.08,5.36.25,7.99.53l5.59-6.96c14.62,2.05,28.38,6.78,40.8,13.66l.43,9.03c2.5,1.49,4.93,3.14,7.31,4.86,2.83,2.02,5.56,4.2,8.2,6.5,2.07,1.82,4.1,3.74,6.04,5.72l8.83-1.75c9.48,10.47,17.17,22.61,22.51,35.94l-5.41,7.13c1.06,2.98,1.97,6.02,2.78,9.11.89,3.36,1.62,6.8,2.18,10.32.48,3.01.83,6.05,1.09,9.13l7.82,4.3c.08,1.47.1,2.93.1,4.4,0,12.77-2.02,25.07-5.74,36.62Z"/>
    <path class="cls-5" d="M260.31,141.08c-.25-3.09-.61-6.12-1.09-9.13-.56-3.52-1.29-6.96-2.18-10.32-.81-3.09-1.72-6.12-2.78-9.11-5.54-15.66-14.47-29.72-25.93-41.33-1.95-1.97-3.97-3.9-6.04-5.72-2.63-2.3-5.36-4.48-8.2-6.5-2.38-1.72-4.81-3.36-7.31-4.86-13.91-8.5-29.82-14.04-46.82-15.73-2.63-.28-5.31-.46-7.99-.53-1.11-.03-2.23-.05-3.34-.05-2.38,0-4.73.08-7.06.23-2.88.18-5.74.46-8.57.89-16.9,2.35-32.58,8.5-46.18,17.55-2.28,1.52-4.5,3.11-6.63,4.76-2.76,2.15-5.41,4.4-7.94,6.78-2.18,2.05-4.3,4.17-6.35,6.4-10.93,12.01-19.3,26.41-24.23,42.32-.89,2.83-1.64,5.72-2.28,8.62-.78,3.41-1.39,6.88-1.82,10.4-.4,3.24-.68,6.53-.81,9.84v.03c-.05,1.39-.08,2.76-.08,4.17,0,14.11,2.66,27.62,7.41,40.06.35.94.73,1.87,1.11,2.78,1.26,3.01,2.63,5.94,4.15,8.8,1.64,3.16,3.44,6.22,5.39,9.18.43.68.86,1.34,1.32,2,1.57,2.3,3.19,4.53,4.93,6.68.3.43.66.83.99,1.26,1.64,2,3.31,3.92,5.06,5.77,5.16,5.49,10.83,10.45,17,14.82h.03c3.64,2.61,7.44,4.98,11.38,7.11.61.33,1.19.63,1.8.94,3.04,1.59,6.15,3.04,9.36,4.35.25.1.48.2.73.3,3.09,1.21,6.2,2.3,9.41,3.26.38.13.78.23,1.19.35,3.19.91,6.45,1.67,9.74,2.3,6.8,1.29,13.81,1.97,20.97,1.97,3.47,0,6.91-.15,10.27-.48,3.09-.25,6.1-.66,9.05-1.19h.03c2.1-.35,4.17-.78,6.22-1.26,2.63-.61,5.24-1.34,7.82-2.12h.03c.76-.23,1.49-.48,2.25-.76,3.39-1.11,6.73-2.43,9.97-3.9,3.36-1.52,6.68-3.19,9.86-5.03,1.06-.61,2.12-1.24,3.19-1.9.63-.38,1.26-.76,1.85-1.16.05,0,.05-.03.08-.03,7.34-4.76,14.14-10.34,20.13-16.64l.03-.03c.94-.96,1.85-1.92,2.71-2.91,2.48-2.78,4.83-5.69,7.01-8.7,1.97-2.66,3.79-5.41,5.51-8.25,1.82-3.04,3.49-6.17,5.03-9.38,1.32-2.73,2.53-5.56,3.62-8.42.15-.38.3-.78.43-1.16,4.48-12.04,6.93-25.04,6.93-38.62,0-2.93-.1-5.84-.33-8.7ZM250.27,189.06c-6.25,16.19-16.31,30.53-29.04,41.91-1.57,1.42-3.16,2.76-4.83,4.07-10.14,8.09-21.73,14.39-34.35,18.44h-.03c-4.55,1.49-9.23,2.66-14.04,3.54h-.03c-6.27,1.11-12.72,1.69-19.32,1.69-5.64,0-11.23-.43-16.64-1.29-4.81-.73-9.48-1.77-14.06-3.14-3.36-.99-6.68-2.12-9.94-3.44-4.12-1.67-8.12-3.57-11.96-5.72-4.48-2.48-8.75-5.24-12.75-8.3-5.03-3.74-9.69-7.94-13.96-12.52-2.61-2.73-5.03-5.61-7.33-8.62-.78-1.01-1.52-2.05-2.25-3.09-5.11-7.18-9.33-14.97-12.6-23.27-4.78-12.27-7.44-25.6-7.44-39.56,0-60.1,48.87-108.96,108.94-108.96s108.99,48.87,108.99,108.96c0,13.84-2.63,27.09-7.36,39.28Z"/>
    <path class="cls-5" d="M255.1,149.78c0,13.71-2.63,26.81-7.36,38.85-5.89,14.97-15.07,28.3-26.71,39.1-2.76,2.58-5.72,5.03-8.75,7.31-9.11,6.78-19.25,12.17-30.23,15.78h-.03c-4.55,1.52-9.23,2.73-14.04,3.59h-.03c-6.27,1.16-12.72,1.77-19.32,1.77-5.64,0-11.23-.46-16.64-1.32-4.81-.76-9.48-1.82-14.06-3.21-3.19-.96-6.32-2.07-9.33-3.31h-.03c-4.2-1.69-8.19-3.64-12.06-5.84-4.88-2.76-9.54-5.89-13.89-9.33l-.03-.03c-3.44-2.73-6.73-5.69-9.84-8.83-9.86-10.07-17.76-22.08-23.09-35.41-4.78-12.12-7.44-25.32-7.44-39.13,0-58.68,47.73-106.43,106.41-106.43s106.46,47.75,106.46,106.43Z"/>
  </g>
  <path class="cls-2" d="M148.65,40.82c-60.07,0-108.94,48.87-108.94,108.96,0,13.96,2.66,27.29,7.44,39.56.13.3.23.58.35.89,3.21,7.97,7.31,15.45,12.24,22.38.73,1.04,1.47,2.07,2.25,3.09,2.3,3.01,4.73,5.89,7.33,8.62,4.27,4.58,8.93,8.78,13.96,12.52,4,3.06,8.27,5.82,12.75,8.3,3.84,2.15,7.84,4.05,11.96,5.72,3.26,1.32,6.58,2.45,9.94,3.44,4.58,1.37,9.26,2.4,14.06,3.14,5.41.86,11,1.29,16.64,1.29,6.6,0,13.05-.58,19.32-1.69h.03c4.81-.89,9.48-2.05,14.04-3.54h.03c12.62-4.05,24.21-10.34,34.35-18.44,1.67-1.32,3.26-2.66,4.83-4.07,12.55-11.23,22.51-25.32,28.76-41.23.1-.23.2-.46.28-.68,4.73-12.19,7.36-25.44,7.36-39.28,0-60.1-48.87-108.96-108.99-108.96ZM247.74,188.63c-.1.23-.18.46-.28.68-5.89,14.7-14.97,27.8-26.43,38.42-2.76,2.58-5.72,5.03-8.75,7.31-9.11,6.78-19.25,12.17-30.23,15.78h-.03c-4.55,1.52-9.23,2.73-14.04,3.59h-.03c-6.27,1.16-12.72,1.77-19.32,1.77-5.64,0-11.23-.46-16.64-1.32-4.81-.76-9.48-1.82-14.06-3.21-3.19-.96-6.32-2.07-9.33-3.31h-.03c-4.2-1.69-8.19-3.64-12.06-5.84-4.88-2.76-9.54-5.89-13.89-9.33l-.03-.03c-3.44-2.73-6.73-5.69-9.84-8.83-9.64-9.84-17.4-21.55-22.71-34.52-.13-.3-.25-.58-.38-.89-4.78-12.12-7.44-25.32-7.44-39.13,0-58.68,47.73-106.43,106.41-106.43s106.46,47.75,106.46,106.43c0,13.71-2.63,26.81-7.36,38.85Z"/>
  <path class="cls-4" d="M247.47,189.32c-5.89,14.7-14.97,27.8-26.43,38.42-2.76,2.58-5.72,5.03-8.75,7.31-9.11,6.78-19.25,12.17-30.23,15.78h-.03c-4.55,1.52-9.23,2.73-14.04,3.59h-.03c-6.27,1.16-12.72,1.77-19.32,1.77-5.64,0-11.23-.46-16.64-1.32-4.81-.76-9.48-1.82-14.06-3.21-3.19-.96-6.32-2.07-9.33-3.31h-.03c-4.2-1.69-8.19-3.64-12.06-5.84-4.88-2.76-9.54-5.89-13.89-9.33l-.03-.03c-3.44-2.73-6.73-5.69-9.84-8.83-9.64-9.84-17.4-21.55-22.71-34.52.1,0,.23-.03.33-.05,22-3.64,46.26-6.1,71.93-7.13,5.19-.23,10.42-.38,15.71-.46,4.05-.1,8.09-.13,12.19-.13,35.01,0,68.06,2.63,97.25,7.28Z"/>
  <g>
    <path class="cls-5" d="M176.78,118.06c-6.53,1.57-14.21,2.93-21.78,3.79-6.12.73-12.14,1.16-17.38,1.16-.33-.46-.68-.91-1.04-1.37,3.09-6.7,4.98-11.79,7.66-17.28,1.21-2.48,2.58-5.06,4.3-7.92.13-.2.28-.38.46-.56,2.15-1.95,8.12-1.57,11.96-1.09.28.03.56.08.83.1,9.59,1.19,13.08,1.44,13.91,3.01l1.06,20.13Z"/>
    <path class="cls-5" d="M126.38,169.03c.08-5.48,3.22-9.98,6.83-9.79,3.44.18,6.24,4.51,6.33,9.77.1,5.85-2.94,10.44-6.78,10.25-3.59-.17-6.46-4.76-6.38-10.22Z"/>
    <path class="cls-5" d="M122.07,133.24c0,1.24-.3,2.4-.81,3.49-.53,1.09-1.26,2.1-2.2,3.01-3.41,3.31-9.33,5.26-15.28,4.81-.48-.03-.96-.08-1.42-.15-.08,0-.15-.03-.2-.03-.48-.08-.94-.15-1.42-.25-.51-.13-1.04-.25-1.54-.4-1.19-.35-1.64-1.8-.91-2.76.03,0,.03-.03.03-.03,1.19-1.52,2.3-2.93,3.67-3.34,6.55-1.85,13.3-2.93,20.08-4.35Z"/>
    <path class="cls-5" d="M92.76,139.03v1.49h-35.31v-1.87c11.24-.94,23.02-2.01,35.31.38Z"/>
    <path class="cls-3" d="M92.76,148.44v1.47c-12.34,1.24-24.17,1.37-35.31,0v-1.87c11.76.23,23.55-.83,35.31.4Z"/>
    <path class="cls-5" d="M91.57,143.61c-.03.4-.03.81-.03,1.24h-34.09v-1.24h34.12Z"/>
    <path class="cls-5" d="M224.18,160.13v.23c-.05,1.95-.66,3.67-1.59,4.81,0,.03-.03.03-.05.05-.71.86-1.62,1.37-2.61,1.37-1.04,0-1.97-.53-2.71-1.47-.03-.03-.03-.05-.03-.05-.78-1.01-1.34-2.45-1.49-4.07,0-.23-.03-.48-.03-.71,0-.2.03-.4.03-.58v-.03c.05-1.29.35-2.48.83-3.44.18-.38.4-.76.66-1.06,0-.03.03-.03.03-.03.73-.94,1.67-1.49,2.71-1.49.66,0,1.26.23,1.82.63.58.4,1.11,1.04,1.49,1.82.58,1.09.94,2.5.94,4.02Z"/>
    <path class="cls-5" d="M56.77,135.43c.3,4.35-1.97,7.76-6.58,8.35,0,0-1.24-8.04,6.37-11.51l-.13.23c-.15.58.25,2,.33,2.93Z"/>
    <path class="cls-1" d="M238.17,142.97c-3.24-1.47-1.62-3.34-1.54-5.11.28-6.32,1.52-12.75.78-18.94-1.06-9.26-3.52-18.31-5.34-27.47-.96-4.88-4-7.16-8.83-7.74-9.79-1.19-19.58-2.28-29.29-3.92-6.45-1.09-12.9-1.9-19.32-2.43-19.55-1.59-39.1-.71-58.7,1.95-9.28,1.24-15.02,7.31-20.74,14.06-4.32,3.95-8.47,9.08-12.49,13.63-3.79,4.55-8.22,9.56-10.02,15.1-5.54,1.24-10.8,6.7-16.11,10.17l-.13.23c-.15.58.25,2,.33,2.93.3,4.35-1.97,7.76-6.58,8.35,0,5.06.48,10.34-.15,15.45-.58,4.55.66,7.13,4.86,8.85,1.37.56,2.78,2.15,3.26,3.59,2.23,6.63,5.67,9.56,12.39,9.99,6.83.43,10.55-1.97,13.63-8.2.63-1.32,2.71-2.73,4.12-2.76,7.06-.13,14.14.4,21.2.28,4.45-.1,6.88.78,8.3,5.77.71,2.53,2.38,4.5,4.53,5.87,4.6,2.96,11.43,3.06,15.71-.46.53-.43,1.04-.94,1.49-1.49,4.48-5.59,4.32-13.51,1.95-19.93-.99-2.71-2.53-5.49-5.19-6.8-2.45-1.21-5.31-1.34-7.99-1.29-.2.03-.43-.4-.63-.63,3.57-6.75,12.39-7.69,16.09,1.49,1.85,4.6,2.33,9.76,3.54,15.15,19.55-2.53,39.48-5.11,59.54-7.74.43,1.8.76,3.04,1.01,4.3.89,4.45,3.26,6.88,8.14,6.78,4.88-.13,7.59-3.34,8.88-7.64.35-1.21.43-2.12.43-3.64.03-.43.03-.89,0-1.37-.03-3.21-.78-5.87-1.67-8.3-.94-2.48-4.91-5.54-8.7-4.05.56-3.16,3.69-4.33,5.19-3.95,1.95.53,4.05,2.78,4.83,4.78,1.16,2.93,1.19,6.3,1.8,10.04,3.11-1.34,6.17-2.43,9.03-3.95,2.43-1.26,4.43-10.07,2.4-10.98ZM57.45,143.62h34.12c-.03.4-.03.81-.03,1.24h-34.09v-1.24ZM92.76,149.92h-35.31v-1.87c11.76.23,23.55-.83,35.31.4v1.47ZM92.76,140.54h-35.31v-1.87c11.76.23,23.55-.83,35.31.38v1.49ZM121.26,136.74c-.13.28-.28.53-.43.81-.3.51-.68,1.01-1.11,1.49-.2.25-.43.48-.66.71-3.41,3.31-9.33,5.26-15.28,4.81-.46-.03-.94-.08-1.42-.15-.08,0-.15-.03-.2-.03-.48-.05-.96-.15-1.42-.25-.53-.1-1.04-.23-1.54-.4-1.19-.35-1.64-1.8-.91-2.76.03,0,.03-.03.03-.03,1.19-1.52,2.3-2.93,3.67-3.34,6.55-1.85,13.3-2.93,20.08-4.35,0,1.24-.3,2.4-.81,3.49ZM129.38,160.95c.53-.53,1.09-.96,1.69-1.24.2-.13.4-.2.61-.25.48-.15,1.01-.23,1.52-.2,1.49.08,2.88.94,3.97,2.33,1.39,1.8,2.33,4.45,2.38,7.44.03,1.85-.25,3.59-.78,5.06-.28.86-.66,1.62-1.11,2.3-1.21,1.87-2.96,2.98-4.88,2.88-3.09-.15-5.67-3.57-6.25-7.99-.1-.71-.15-1.47-.13-2.23,0-.68.08-1.32.15-1.95.4-2.55,1.44-4.76,2.83-6.15ZM131.83,119.7c-.63,1.19-3.29,1.87-5.01,1.9-17.58.03-35.21-1.04-52.69.28-.43.03-.86.1-1.29.2,6.75-9.74,14.44-19.48,22.16-28.48,16.97-.68,33.39-1.32,51.02-2-5.16,10.34-9.48,19.32-14.19,28.1ZM155,121.87c-6.12.73-12.14,1.16-17.38,1.16-.33-.46-.68-.91-1.04-1.37,3.09-6.7,4.98-11.79,7.66-17.28,1.21-2.48,2.58-5.06,4.3-7.92.13-.2.28-.38.46-.56,2.15-1.95,8.12-1.57,11.96-1.09.28.03.56.08.83.1,9.59,1.19,13.08,1.44,13.91,3.01l1.06,20.13c-6.53,1.57-14.21,2.93-21.78,3.79ZM215.71,159.71v-.03c.05-1.29.35-2.48.83-3.44.18-.38.4-.76.66-1.06,0-.03.03-.03.03-.03.73-.94,1.67-1.49,2.71-1.49.66,0,1.26.23,1.82.63.58.4,1.11,1.04,1.49,1.82.58,1.09.94,2.5.94,4.02v.23c-.05,1.95-.66,3.67-1.59,4.81,0,.03-.03.03-.05.05-.71.86-1.62,1.37-2.61,1.37-1.04,0-1.97-.53-2.71-1.47-.03-.03-.03-.05-.03-.05-.78-1.01-1.34-2.45-1.49-4.07,0-.23-.03-.48-.03-.71,0-.2.03-.4.03-.58Z"/>
    <path class="cls-3" d="M146.02,91.58c-5.16,10.34-9.48,19.32-14.19,28.1-.63,1.19-3.29,1.87-5.01,1.9-17.58.03-35.21-1.04-52.69.28-.43.03-.86.1-1.29.2,6.75-9.74,14.44-19.48,22.16-28.48,16.97-.68,33.39-1.32,51.02-2Z"/>
  </g>
</svg>